<svg width="421" height="852" viewBox="0 0 421 852" fill="none" xmlns="http://www.w3.org/2000/svg">
<path d="M0 207C0 205.343 1.34315 204 3 204H6V226H3C1.34315 226 0 224.657 0 223V207Z" fill="#37424D"/>
<path d="M0 339C0 337.343 1.34315 336 3 336H6V408H3C1.34315 408 0 406.657 0 405V339Z" fill="#37424D"/>
<path d="M421 284C421 282.343 419.657 281 418 281H415V399H418C419.657 399 421 397.657 421 396V284Z" fill="#37424D"/>
<path d="M0 253C0 251.343 1.34315 250 3 250H6V322H3C1.34315 322 0 320.657 0 319V253Z" fill="#37424D"/>
<rect x="3" width="415" height="852" rx="65" fill="url(#paint0_linear_1875_3301)"/>
<rect x="9" y="6" width="403" height="840" rx="60" fill="#232020"/>
<rect opacity="0.15" x="3" y="119" width="6" height="15" fill="#A7A7A7"/>
<rect opacity="0.15" x="3" y="714" width="6" height="15" fill="#A7A7A7"/>
<rect opacity="0.15" x="412" y="119" width="6" height="15" fill="#A7A7A7"/>
<rect opacity="0.3" x="412" y="714" width="6" height="15" fill="#A7A7A7"/>
<rect opacity="0.15" x="316" y="6" width="6" height="15" transform="rotate(-90 316 6)" fill="#A7A7A7"/>
<rect opacity="0.15" x="96" y="852" width="6" height="15" transform="rotate(-90 96 852)" fill="#A7A7A7"/>
<rect x="183" y="10" width="55" height="8" rx="4" fill="#0F0E0E"/>
<g clip-path="url(#clip0_1875_3301)">
<rect x="23" y="20" width="375" height="812" rx="50" fill="white"/>
<rect x="144" y="820" width="134" height="5" rx="2.5" fill="black"/>
<g filter="url(#filter0_d_1875_3301)">
<rect x="43" y="706" width="327" height="71" rx="16" fill="#F2994A"/>
<path d="M146.179 725.024C146.755 725.024 147.127 725.444 147.295 726.284C147.415 730.196 147.475 734.468 147.475 739.1C147.475 743.708 147.451 746.372 147.403 747.092C147.355 747.812 147.199 748.316 146.935 748.604C146.671 748.892 146.191 749.036 145.495 749.036C144.871 749.036 144.559 748.652 144.559 747.884V739.748C144.559 738.428 144.535 737.072 144.487 735.68C144.439 734.288 144.415 733.412 144.415 733.052C143.599 734.444 142.519 735.596 141.175 736.508C139.831 737.396 138.331 737.84 136.675 737.84C135.019 737.84 133.627 737.156 132.499 735.788C132.451 737.252 132.427 738.992 132.427 741.008C132.427 743 132.439 745.1 132.463 747.308C132.463 747.908 132.259 748.352 131.851 748.64C131.467 748.904 131.023 749.036 130.519 749.036C129.871 749.036 129.547 748.64 129.547 747.848C129.571 745.688 129.583 742.268 129.583 737.588V727.364C129.583 726.956 129.715 726.56 129.979 726.176C130.267 725.792 130.591 725.6 130.951 725.6C131.335 725.6 131.683 725.708 131.995 725.924C132.307 726.116 132.475 726.416 132.499 726.824C132.595 729.488 133.027 731.468 133.795 732.764C134.563 734.06 135.475 734.708 136.531 734.708C137.587 734.708 138.487 734.54 139.231 734.204C139.999 733.844 140.623 733.436 141.103 732.98C141.607 732.524 142.087 731.876 142.543 731.036C143.191 729.836 143.815 728.36 144.415 726.608C144.775 725.552 145.363 725.024 146.179 725.024ZM160.533 732.188C161.589 732.188 162.117 733.088 162.117 734.888C162.117 735.08 162.117 735.284 162.117 735.5L162.045 738.02C162.021 738.812 162.009 739.592 162.009 740.36L162.549 748.496C162.549 749.096 161.937 749.396 160.713 749.396C160.641 749.396 160.461 749.396 160.173 749.396C159.909 749.396 159.717 749.288 159.597 749.072C159.501 748.856 159.489 748.592 159.561 748.28C159.657 747.968 159.633 747.62 159.489 747.236C158.385 748.412 156.921 749 155.097 749C151.713 749 150.021 746.384 150.021 741.152C150.021 738.248 150.561 736.052 151.641 734.564C152.745 733.076 154.317 732.332 156.357 732.332C157.317 732.332 158.277 732.5 159.237 732.836C159.549 732.404 159.981 732.188 160.533 732.188ZM156.789 735.464C155.421 735.464 154.401 735.86 153.729 736.652C153.057 737.444 152.721 738.896 152.721 741.008C152.721 744.56 153.681 746.336 155.601 746.336C156.105 746.336 156.657 746.108 157.257 745.652C157.881 745.196 158.313 744.68 158.553 744.104C159.009 742.808 159.237 741.392 159.237 739.856C159.237 738.32 159.045 737.204 158.661 736.508C158.301 735.812 157.677 735.464 156.789 735.464ZM166.963 726.248C167.395 726.248 167.803 726.452 168.187 726.86C168.571 727.268 168.763 727.7 168.763 728.156C168.763 728.588 168.547 729.032 168.115 729.488C167.707 729.944 167.275 730.172 166.819 730.172C166.363 730.172 165.943 729.98 165.559 729.596C165.199 729.212 165.019 728.72 165.019 728.12C165.019 726.968 165.643 726.344 166.891 726.248C166.915 726.248 166.939 726.248 166.963 726.248ZM168.475 745.112L168.511 747.632C168.511 748.088 168.331 748.472 167.971 748.784C167.611 749.072 167.227 749.216 166.819 749.216C166.219 749.216 165.907 748.916 165.883 748.316C165.571 740.66 165.415 736.424 165.415 735.608C165.415 734.792 165.451 733.796 165.523 732.62C165.571 732.188 165.847 731.972 166.351 731.972C167.623 731.972 168.343 732.488 168.511 733.52C168.583 734.048 168.619 734.468 168.619 734.78L168.475 737.048V745.112ZM174.006 747.884L173.61 733.268C173.61 732.812 173.766 732.44 174.078 732.152C174.39 731.864 174.702 731.72 175.014 731.72C175.782 731.72 176.226 732.044 176.346 732.692C176.442 733.34 176.49 734.012 176.49 734.708C177.786 733.004 179.406 732.152 181.35 732.152C184.326 732.152 185.814 735.548 185.814 742.34C185.814 742.964 185.814 743.912 185.814 745.184C185.814 746.432 185.742 747.344 185.598 747.92C185.43 748.64 184.914 749 184.05 749C183.474 749 183.186 748.616 183.186 747.848L183.222 745.832C183.222 743.048 183.126 741.152 182.934 740.144C182.766 739.112 182.598 738.296 182.43 737.696C182.022 736.4 181.362 735.752 180.45 735.752C179.25 735.752 178.41 736.184 177.93 737.048C177.402 737.984 177.09 739.088 176.994 740.36C176.826 742.592 176.742 744.956 176.742 747.452C176.742 747.932 176.562 748.316 176.202 748.604C175.842 748.892 175.41 749.036 174.906 749.036C174.306 749.036 174.006 748.652 174.006 747.884ZM214.312 725.024C214.888 725.024 215.26 725.444 215.428 726.284C215.548 730.196 215.608 734.468 215.608 739.1C215.608 743.708 215.584 746.372 215.536 747.092C215.488 747.812 215.332 748.316 215.068 748.604C214.804 748.892 214.324 749.036 213.628 749.036C213.004 749.036 212.692 748.652 212.692 747.884V739.748C212.692 738.428 212.668 737.072 212.62 735.68C212.572 734.288 212.548 733.412 212.548 733.052C211.732 734.444 210.652 735.596 209.308 736.508C207.964 737.396 206.464 737.84 204.808 737.84C203.152 737.84 201.76 737.156 200.632 735.788C200.584 737.252 200.56 738.992 200.56 741.008C200.56 743 200.572 745.1 200.596 747.308C200.596 747.908 200.392 748.352 199.984 748.64C199.6 748.904 199.156 749.036 198.652 749.036C198.004 749.036 197.68 748.64 197.68 747.848C197.704 745.688 197.716 742.268 197.716 737.588V727.364C197.716 726.956 197.848 726.56 198.112 726.176C198.4 725.792 198.724 725.6 199.084 725.6C199.468 725.6 199.816 725.708 200.128 725.924C200.44 726.116 200.608 726.416 200.632 726.824C200.728 729.488 201.16 731.468 201.928 732.764C202.696 734.06 203.608 734.708 204.664 734.708C205.72 734.708 206.62 734.54 207.364 734.204C208.132 733.844 208.756 733.436 209.236 732.98C209.74 732.524 210.22 731.876 210.676 731.036C211.324 729.836 211.948 728.36 212.548 726.608C212.908 725.552 213.496 725.024 214.312 725.024ZM223.806 732.332C225.078 732.332 226.29 732.704 227.442 733.448C228.594 734.192 229.17 735.116 229.17 736.22C229.17 737.3 228.702 738.356 227.766 739.388C226.83 740.396 225.582 741.008 224.022 741.224C223.35 741.32 222.342 741.368 220.998 741.368C221.262 743.408 221.778 744.752 222.546 745.4C222.786 745.664 223.11 745.796 223.518 745.796C225.006 745.796 226.254 745.328 227.262 744.392C228.27 743.432 228.99 742.952 229.422 742.952C229.614 742.952 229.902 743.132 230.286 743.492C230.67 743.852 230.862 744.188 230.862 744.5C230.862 745.124 230.106 746.024 228.594 747.2C227.922 747.752 227.106 748.22 226.146 748.604C225.21 748.964 224.334 749.144 223.518 749.144C221.43 749.144 219.894 747.8 218.91 745.112C218.286 743.456 217.974 741.632 217.974 739.64C217.974 737.648 218.442 735.932 219.378 734.492C220.314 733.052 221.79 732.332 223.806 732.332ZM223.986 734.816C223.074 734.816 222.294 735.332 221.646 736.364C221.406 736.724 221.178 737.54 220.962 738.812C224.322 738.812 226.002 737.984 226.002 736.328C226.002 735.32 225.33 734.816 223.986 734.816ZM234.334 747.884L233.938 733.268C233.938 732.812 234.094 732.44 234.406 732.152C234.718 731.864 235.03 731.72 235.342 731.72C236.11 731.72 236.554 732.044 236.674 732.692C236.77 733.34 236.818 734.012 236.818 734.708C238.114 733.004 239.734 732.152 241.678 732.152C244.654 732.152 246.142 735.548 246.142 742.34C246.142 742.964 246.142 743.912 246.142 745.184C246.142 746.432 246.07 747.344 245.926 747.92C245.758 748.64 245.242 749 244.378 749C243.802 749 243.514 748.616 243.514 747.848L243.55 745.832C243.55 743.048 243.454 741.152 243.262 740.144C243.094 739.112 242.926 738.296 242.758 737.696C242.35 736.4 241.69 735.752 240.778 735.752C239.578 735.752 238.738 736.184 238.258 737.048C237.73 737.984 237.418 739.088 237.322 740.36C237.154 742.592 237.07 744.956 237.07 747.452C237.07 747.932 236.89 748.316 236.53 748.604C236.17 748.892 235.738 749.036 235.234 749.036C234.634 749.036 234.334 748.652 234.334 747.884ZM249.171 733.592C249.267 733.184 249.471 732.848 249.783 732.584C250.095 732.296 250.407 732.152 250.719 732.152C251.055 732.152 251.307 732.212 251.475 732.332C251.667 732.452 251.775 732.56 251.799 732.656C251.847 732.752 251.895 732.92 251.943 733.16C251.799 735.032 251.727 736.724 251.727 738.236C251.727 739.724 251.907 741.44 252.267 743.384C252.627 745.304 253.023 746.264 253.455 746.264C254.103 746.264 254.919 745.904 255.903 745.184C256.911 744.464 257.631 743.708 258.063 742.916C257.775 739.46 257.631 736.496 257.631 734.024C257.631 733.52 257.787 733.088 258.099 732.728C258.435 732.368 258.831 732.188 259.287 732.188C260.031 732.188 260.403 732.692 260.403 733.7C260.403 735.404 260.523 737.936 260.763 741.296C261.027 744.656 261.291 746.792 261.555 747.704C261.603 747.896 261.627 748.124 261.627 748.388C261.627 748.628 261.459 748.856 261.123 749.072C260.811 749.312 260.391 749.432 259.863 749.432C259.359 749.432 259.023 749.144 258.855 748.568C258.807 748.088 258.687 747.368 258.495 746.408C256.815 748.16 255.123 749.036 253.419 749.036C252.627 749.036 251.919 748.736 251.295 748.136C250.671 747.536 250.179 746.72 249.819 745.688C249.195 743.696 248.883 741.824 248.883 740.072C248.883 738.32 248.979 736.16 249.171 733.592Z" fill="#18191F"/>
<rect x="44" y="707" width="325" height="69" rx="15" stroke="#18191F" stroke-width="2"/>
</g>
<g filter="url(#filter1_dd_1875_3301)">
<rect x="21" y="377" width="377" height="280" rx="9.03012" fill="white"/>
<ellipse cx="147.5" cy="503" rx="85.5" ry="86" fill="#FCFCFC"/>
<path d="M323 516C323 577.856 269.498 628 203.5 628C137.502 628 84 577.856 84 516C84 454.144 137.502 404 203.5 404C269.498 404 323 454.144 323 516ZM103.12 516C103.12 567.959 148.062 610.08 203.5 610.08C258.938 610.08 303.88 567.959 303.88 516C303.88 464.041 258.938 421.92 203.5 421.92C148.062 421.92 103.12 464.041 103.12 516Z" fill="#E9E9FF"/>
<path d="M203.5 404C269.498 404 323 454.144 323 516C323 577.856 269.498 628 203.5 628C137.502 628 84 577.856 84 516C84 454.144 137.502 404 203.5 404ZM203.5 610.08C258.938 610.08 303.88 567.959 303.88 516C303.88 464.041 258.938 421.92 203.5 421.92C148.062 421.92 103.12 464.041 103.12 516C103.12 567.959 148.062 610.08 203.5 610.08Z" fill="url(#paint1_radial_1875_3301)"/>
<path d="M162.462 528.709C162.036 528.709 161.662 528.562 161.342 528.269C161.049 527.976 160.902 527.602 160.902 527.149V501.149L156.902 502.549C156.609 502.682 156.342 502.749 156.102 502.749C155.649 502.749 155.276 502.602 154.982 502.309C154.689 502.016 154.542 501.656 154.542 501.229C154.542 500.909 154.609 500.616 154.742 500.349C154.902 500.082 155.169 499.882 155.542 499.749L161.702 497.629C161.836 497.576 161.969 497.536 162.102 497.509C162.262 497.456 162.396 497.429 162.502 497.429C162.956 497.429 163.316 497.589 163.582 497.909C163.876 498.202 164.022 498.562 164.022 498.989V527.149C164.022 527.602 163.876 527.976 163.582 528.269C163.289 528.562 162.916 528.709 162.462 528.709ZM181.419 528.709C179.446 528.709 177.753 528.082 176.339 526.829C174.926 525.576 173.846 523.789 173.099 521.469C172.379 519.122 172.019 516.309 172.019 513.029C172.019 509.802 172.379 507.016 173.099 504.669C173.846 502.322 174.926 500.522 176.339 499.269C177.753 498.016 179.446 497.389 181.419 497.389C183.446 497.389 185.153 498.029 186.539 499.309C187.953 500.562 189.019 502.362 189.739 504.709C190.486 507.056 190.859 509.829 190.859 513.029C190.859 516.282 190.486 519.082 189.739 521.429C189.019 523.749 187.953 525.549 186.539 526.829C185.153 528.082 183.446 528.709 181.419 528.709ZM181.419 525.589C182.859 525.589 184.046 525.056 184.979 523.989C185.913 522.896 186.606 521.402 187.059 519.509C187.513 517.616 187.739 515.456 187.739 513.029C187.739 510.629 187.499 508.496 187.019 506.629C186.566 504.736 185.873 503.242 184.939 502.149C184.006 501.056 182.833 500.509 181.419 500.509C180.006 500.509 178.833 501.056 177.899 502.149C176.993 503.216 176.299 504.696 175.819 506.589C175.366 508.482 175.139 510.629 175.139 513.029C175.139 515.482 175.366 517.656 175.819 519.549C176.299 521.416 176.993 522.896 177.899 523.989C178.833 525.056 180.006 525.589 181.419 525.589ZM206.271 528.709C204.298 528.709 202.604 528.082 201.191 526.829C199.778 525.576 198.698 523.789 197.951 521.469C197.231 519.122 196.871 516.309 196.871 513.029C196.871 509.802 197.231 507.016 197.951 504.669C198.698 502.322 199.778 500.522 201.191 499.269C202.604 498.016 204.298 497.389 206.271 497.389C208.298 497.389 210.004 498.029 211.391 499.309C212.804 500.562 213.871 502.362 214.591 504.709C215.338 507.056 215.711 509.829 215.711 513.029C215.711 516.282 215.338 519.082 214.591 521.429C213.871 523.749 212.804 525.549 211.391 526.829C210.004 528.082 208.298 528.709 206.271 528.709ZM206.271 525.589C207.711 525.589 208.898 525.056 209.831 523.989C210.764 522.896 211.458 521.402 211.911 519.509C212.364 517.616 212.591 515.456 212.591 513.029C212.591 510.629 212.351 508.496 211.871 506.629C211.418 504.736 210.724 503.242 209.791 502.149C208.858 501.056 207.684 500.509 206.271 500.509C204.858 500.509 203.684 501.056 202.751 502.149C201.844 503.216 201.151 504.696 200.671 506.589C200.218 508.482 199.991 510.629 199.991 513.029C199.991 515.482 200.218 517.656 200.671 519.549C201.151 521.416 201.844 522.896 202.751 523.989C203.684 525.056 204.858 525.589 206.271 525.589ZM226.083 528.709C225.656 528.709 225.296 528.562 225.003 528.269C224.709 527.976 224.563 527.602 224.563 527.149C224.563 526.749 224.683 526.402 224.923 526.109L246.883 498.069C247.069 497.882 247.256 497.736 247.443 497.629C247.656 497.496 247.883 497.429 248.123 497.429C248.576 497.429 248.949 497.589 249.243 497.909C249.536 498.202 249.683 498.576 249.683 499.029C249.683 499.376 249.589 499.682 249.403 499.949L227.283 528.189C226.936 528.536 226.536 528.709 226.083 528.709ZM229.003 513.069C227.563 513.069 226.243 512.722 225.043 512.029C223.869 511.309 222.923 510.362 222.203 509.189C221.509 507.989 221.163 506.682 221.163 505.269C221.163 503.856 221.509 502.562 222.203 501.389C222.923 500.189 223.869 499.229 225.043 498.509C226.243 497.789 227.563 497.429 229.003 497.429C230.416 497.429 231.709 497.789 232.883 498.509C234.083 499.229 235.029 500.189 235.723 501.389C236.443 502.562 236.803 503.856 236.803 505.269C236.803 506.682 236.443 507.989 235.723 509.189C235.029 510.362 234.083 511.309 232.883 512.029C231.709 512.722 230.416 513.069 229.003 513.069ZM229.003 510.029C229.856 510.029 230.643 509.816 231.363 509.389C232.083 508.936 232.656 508.349 233.083 507.629C233.536 506.909 233.763 506.122 233.763 505.269C233.763 504.389 233.536 503.589 233.083 502.869C232.656 502.149 232.069 501.576 231.323 501.149C230.603 500.696 229.829 500.469 229.003 500.469C228.149 500.469 227.349 500.696 226.603 501.149C225.883 501.576 225.296 502.149 224.843 502.869C224.416 503.589 224.203 504.389 224.203 505.269C224.203 506.122 224.416 506.909 224.843 507.629C225.296 508.349 225.883 508.936 226.603 509.389C227.323 509.816 228.123 510.029 229.003 510.029ZM245.203 528.709C243.789 528.709 242.483 528.362 241.283 527.669C240.109 526.949 239.163 526.002 238.443 524.829C237.749 523.656 237.403 522.349 237.403 520.909C237.403 519.496 237.749 518.202 238.443 517.029C239.163 515.829 240.109 514.882 241.283 514.189C242.456 513.469 243.763 513.109 245.203 513.109C246.643 513.109 247.949 513.456 249.123 514.149C250.323 514.842 251.269 515.789 251.963 516.989C252.683 518.162 253.043 519.469 253.043 520.909C253.043 522.349 252.683 523.656 251.963 524.829C251.269 526.002 250.323 526.949 249.123 527.669C247.949 528.362 246.643 528.709 245.203 528.709ZM245.203 525.669C246.083 525.669 246.883 525.456 247.603 525.029C248.323 524.576 248.896 523.989 249.323 523.269C249.776 522.549 250.003 521.762 250.003 520.909C250.003 520.056 249.776 519.269 249.323 518.549C248.896 517.829 248.309 517.256 247.563 516.829C246.843 516.376 246.056 516.149 245.203 516.149C244.349 516.149 243.549 516.362 242.803 516.789C242.083 517.216 241.509 517.802 241.083 518.549C240.656 519.269 240.443 520.056 240.443 520.909C240.443 521.789 240.656 522.589 241.083 523.309C241.509 524.029 242.083 524.602 242.803 525.029C243.549 525.456 244.349 525.669 245.203 525.669Z" fill="#070417"/>
</g>
<path d="M121.768 197.224C123.848 197.224 125.608 197.576 127.048 198.28C128.52 198.984 129.256 199.88 129.256 200.968C129.256 201.448 129.128 201.864 128.872 202.216C128.648 202.568 128.296 202.744 127.816 202.744C127.368 202.744 126.376 202.392 124.84 201.688C123.304 200.952 121.896 200.584 120.616 200.584C119.368 200.584 118.072 200.984 116.728 201.784C115.384 202.584 114.712 203.56 114.712 204.712C114.712 206.28 115.528 207.432 117.16 208.168C118.376 208.712 120.12 209.208 122.392 209.656C124.664 210.072 126.52 210.952 127.96 212.296C129.4 213.608 130.12 215.608 130.12 218.296C130.12 222.392 128.888 225.416 126.424 227.368C125.048 228.456 123.096 229 120.568 229C118.072 229 115.576 228.312 113.08 226.936C111.448 226.072 110.632 225.208 110.632 224.344C110.632 224.024 110.76 223.672 111.016 223.288C111.304 222.904 111.688 222.584 112.168 222.328C112.648 222.072 113.08 222.04 113.464 222.232C113.88 222.392 114.536 222.696 115.432 223.144C116.328 223.592 116.984 223.896 117.4 224.056C118.744 224.568 120.008 224.824 121.192 224.824C122.376 224.824 123.512 224.248 124.6 223.096C125.72 221.912 126.28 220.472 126.28 218.776C126.28 216.536 125.16 214.968 122.92 214.072C121.832 213.624 120.6 213.288 119.224 213.064C116.376 212.552 114.232 211.704 112.792 210.52C111.352 209.304 110.632 207.48 110.632 205.048C110.632 202.616 111.672 200.712 113.752 199.336C115.832 197.928 118.504 197.224 121.768 197.224ZM132.183 217.768C132.183 215.624 132.743 213.672 133.863 211.912C135.015 210.152 136.471 208.84 138.231 207.976C139.991 207.08 141.703 206.632 143.367 206.632C145.031 206.632 146.359 206.84 147.351 207.256C148.375 207.64 148.887 208.168 148.887 208.84C148.887 209.48 148.695 210.136 148.311 210.808C147.959 211.448 147.479 211.768 146.871 211.768C146.647 211.768 146.023 211.592 144.999 211.24C144.007 210.856 143.367 210.664 143.079 210.664C141.223 210.664 139.639 211.352 138.327 212.728C137.015 214.072 136.359 215.864 136.359 218.104C136.359 220.344 136.711 222.024 137.415 223.144C138.151 224.232 139.399 224.776 141.159 224.776C141.863 224.776 143.063 224.376 144.759 223.576C146.487 222.744 147.559 222.328 147.975 222.328C148.391 222.328 148.727 222.456 148.983 222.712C149.239 222.968 149.367 223.288 149.367 223.672C149.367 224.44 148.871 225.256 147.879 226.12C146.919 226.952 145.719 227.656 144.279 228.232C142.839 228.776 141.543 229.048 140.391 229.048C137.831 229.048 135.815 228.04 134.343 226.024C132.903 224.008 132.183 221.256 132.183 217.768ZM159.961 206.632C162.265 206.632 164.153 207.736 165.625 209.944C167.129 212.152 167.881 214.808 167.881 217.912C167.881 220.984 167.113 223.608 165.577 225.784C164.073 227.96 162.057 229.048 159.529 229.048C157.033 229.048 155.017 227.944 153.481 225.736C151.945 223.496 151.177 221.016 151.177 218.296C151.177 214.808 151.881 212.024 153.289 209.944C154.793 207.736 157.017 206.632 159.961 206.632ZM159.385 210.568C158.041 210.568 156.937 211.272 156.073 212.68C155.209 214.088 154.777 215.576 154.777 217.144C154.777 219.576 155.257 221.432 156.217 222.712C157.177 223.992 158.265 224.632 159.481 224.632C161.657 224.632 163.049 223.688 163.657 221.8C163.913 220.904 164.041 219.784 164.041 218.44C164.041 213.192 162.489 210.568 159.385 210.568ZM177.016 221.992L177.064 226.936C177.064 227.512 176.792 228.04 176.248 228.52C175.736 229 175.224 229.24 174.712 229.24C173.976 229.24 173.512 228.664 173.32 227.512C173.288 227.256 173.16 224.92 172.936 220.504C172.712 216.056 172.28 212.568 171.64 210.04C171.352 208.824 171.208 208.104 171.208 207.88C171.208 206.824 171.848 206.296 173.128 206.296C173.672 206.296 174.104 206.504 174.424 206.92C174.744 207.336 174.936 207.768 175 208.216C175.096 208.632 175.176 209.208 175.24 209.944C175.304 210.68 175.352 211.144 175.384 211.336C176.056 209.736 177.064 208.536 178.408 207.736C179.752 206.936 181.224 206.536 182.824 206.536C185.448 206.536 186.76 207.208 186.76 208.552C186.76 209.224 186.52 209.768 186.04 210.184C185.592 210.568 185.064 210.76 184.456 210.76C181.736 210.76 179.816 211.624 178.696 213.352C177.576 215.08 177.016 217.96 177.016 221.992ZM196.205 206.776C197.901 206.776 199.517 207.272 201.053 208.264C202.589 209.256 203.357 210.488 203.357 211.96C203.357 213.4 202.733 214.808 201.485 216.184C200.237 217.528 198.573 218.344 196.493 218.632C195.597 218.76 194.253 218.824 192.461 218.824C192.813 221.544 193.501 223.336 194.525 224.2C194.845 224.552 195.277 224.728 195.821 224.728C197.805 224.728 199.469 224.104 200.813 222.856C202.157 221.576 203.117 220.936 203.693 220.936C203.949 220.936 204.333 221.176 204.845 221.656C205.357 222.136 205.613 222.584 205.613 223C205.613 223.832 204.605 225.032 202.589 226.6C201.693 227.336 200.605 227.96 199.325 228.472C198.077 228.952 196.909 229.192 195.821 229.192C193.037 229.192 190.989 227.4 189.677 223.816C188.845 221.608 188.429 219.176 188.429 216.52C188.429 213.864 189.053 211.576 190.301 209.656C191.549 207.736 193.517 206.776 196.205 206.776ZM196.445 210.088C195.229 210.088 194.189 210.776 193.325 212.152C193.005 212.632 192.701 213.72 192.413 215.416C196.893 215.416 199.133 214.312 199.133 212.104C199.133 210.76 198.237 210.088 196.445 210.088ZM208.514 196.552C208.514 195.272 209.314 194.632 210.914 194.632C211.65 194.632 212.082 195.08 212.21 195.976V203.176C212.21 204.52 212.226 205.864 212.258 207.208C212.898 207.016 213.714 206.92 214.706 206.92C217.81 206.92 220.21 207.96 221.906 210.04C223.602 212.12 224.45 214.728 224.45 217.864C224.45 221 223.442 223.656 221.426 225.832C219.442 227.976 216.882 229.048 213.746 229.048C210.61 229.048 209.042 228.168 209.042 226.408C209.042 224.616 208.946 220.104 208.754 212.872C208.594 205.608 208.514 200.168 208.514 196.552ZM218.21 212.008C217.058 211.112 215.842 210.664 214.562 210.664C213.858 210.664 213.138 210.792 212.402 211.048C212.594 213.672 212.69 218.328 212.69 225.016C213.234 225.208 213.794 225.304 214.37 225.304C215.618 225.304 216.866 224.84 218.114 223.912C219.97 222.632 220.898 220.68 220.898 218.056C220.898 215.4 220.002 213.384 218.21 212.008ZM236.695 206.632C238.999 206.632 240.887 207.736 242.359 209.944C243.863 212.152 244.615 214.808 244.615 217.912C244.615 220.984 243.847 223.608 242.311 225.784C240.807 227.96 238.791 229.048 236.263 229.048C233.767 229.048 231.751 227.944 230.215 225.736C228.679 223.496 227.911 221.016 227.911 218.296C227.911 214.808 228.615 212.024 230.023 209.944C231.527 207.736 233.751 206.632 236.695 206.632ZM236.119 210.568C234.775 210.568 233.671 211.272 232.807 212.68C231.943 214.088 231.511 215.576 231.511 217.144C231.511 219.576 231.991 221.432 232.951 222.712C233.911 223.992 234.999 224.632 236.215 224.632C238.391 224.632 239.783 223.688 240.391 221.8C240.647 220.904 240.775 219.784 240.775 218.44C240.775 213.192 239.223 210.568 236.119 210.568ZM260.95 206.584C262.358 206.584 263.062 207.784 263.062 210.184C263.062 210.44 263.062 210.712 263.062 211L262.966 214.36C262.934 215.416 262.918 216.456 262.918 217.48L263.638 228.328C263.638 229.128 262.822 229.528 261.19 229.528C261.094 229.528 260.854 229.528 260.47 229.528C260.118 229.528 259.862 229.384 259.702 229.096C259.574 228.808 259.558 228.456 259.654 228.04C259.782 227.624 259.75 227.16 259.558 226.648C258.086 228.216 256.134 229 253.702 229C249.19 229 246.934 225.512 246.934 218.536C246.934 214.664 247.654 211.736 249.094 209.752C250.566 207.768 252.662 206.776 255.382 206.776C256.662 206.776 257.942 207 259.222 207.448C259.638 206.872 260.214 206.584 260.95 206.584ZM255.958 210.952C254.134 210.952 252.774 211.48 251.878 212.536C250.982 213.592 250.534 215.528 250.534 218.344C250.534 223.08 251.814 225.448 254.374 225.448C255.046 225.448 255.782 225.144 256.582 224.536C257.414 223.928 257.99 223.24 258.31 222.472C258.918 220.744 259.222 218.856 259.222 216.808C259.222 214.76 258.966 213.272 258.454 212.344C257.974 211.416 257.142 210.952 255.958 210.952ZM272.547 221.992L272.595 226.936C272.595 227.512 272.323 228.04 271.779 228.52C271.267 229 270.755 229.24 270.243 229.24C269.507 229.24 269.043 228.664 268.851 227.512C268.819 227.256 268.691 224.92 268.467 220.504C268.243 216.056 267.811 212.568 267.171 210.04C266.883 208.824 266.739 208.104 266.739 207.88C266.739 206.824 267.379 206.296 268.659 206.296C269.203 206.296 269.635 206.504 269.955 206.92C270.275 207.336 270.467 207.768 270.531 208.216C270.627 208.632 270.707 209.208 270.771 209.944C270.835 210.68 270.883 211.144 270.915 211.336C271.587 209.736 272.595 208.536 273.939 207.736C275.283 206.936 276.755 206.536 278.355 206.536C280.979 206.536 282.291 207.208 282.291 208.552C282.291 209.224 282.051 209.768 281.571 210.184C281.123 210.568 280.595 210.76 279.987 210.76C277.267 210.76 275.347 211.624 274.227 213.352C273.107 215.08 272.547 217.96 272.547 221.992ZM296.296 206.536L296.248 197.272C296.248 195.544 296.792 194.68 297.88 194.68C299 194.68 299.624 195.16 299.752 196.12C299.816 196.536 299.896 199.048 299.992 203.656C300.088 208.264 300.232 212.584 300.424 216.616C300.648 220.648 300.76 224.408 300.76 227.896C300.76 228.856 300.04 229.336 298.6 229.336C297.64 229.336 297.16 228.664 297.16 227.32C295.784 228.408 294.152 228.952 292.264 228.952C289.864 228.952 287.912 228.056 286.408 226.264C284.936 224.472 284.2 222.264 284.2 219.64C284.2 217.016 284.728 214.568 285.784 212.296C286.872 209.992 288.552 208.344 290.824 207.352C292.232 206.744 293.592 206.44 294.904 206.44C295.384 206.44 295.848 206.472 296.296 206.536ZM296.536 213.112C296.312 212.408 296.04 211.88 295.72 211.528C295.4 211.144 295.048 210.92 294.664 210.856C294.312 210.76 293.88 210.712 293.368 210.712C292.856 210.712 292.232 210.904 291.496 211.288C290.76 211.672 290.136 212.296 289.624 213.16C288.6 214.888 288.088 216.712 288.088 218.632C288.088 220.52 288.456 222.072 289.192 223.288C289.96 224.472 291.032 225.064 292.408 225.064C293.816 225.064 294.92 224.376 295.72 223C296.52 221.624 296.92 219.864 296.92 217.72C296.92 215.32 296.792 213.784 296.536 213.112Z" fill="#090909"/>
<path d="M66.056 258.424L75.776 258.28C76.24 258.424 76.472 258.656 76.472 258.976C76.472 259.776 76.144 260.176 75.488 260.176C74.288 260.176 73.016 260.208 71.672 260.272C71.592 261.648 71.552 262.688 71.552 263.392C71.552 264.08 71.552 264.52 71.552 264.712L71.648 273.136C71.648 273.632 71.52 273.92 71.264 274C71.072 274.064 70.832 274.096 70.544 274.096C70.08 274.096 69.824 273.832 69.776 273.304C69.68 272.072 69.632 269.776 69.632 266.416C69.632 263.04 69.68 261.008 69.776 260.32C69.44 260.336 68.944 260.344 68.288 260.344C67.632 260.344 66.816 260.336 65.84 260.32C65.584 260.32 65.384 260.24 65.24 260.08C65.096 259.92 65.024 259.728 65.024 259.504C65.024 259.264 65.12 259.032 65.312 258.808C65.52 258.584 65.768 258.456 66.056 258.424ZM81.3866 262.816C82.5386 262.816 83.4826 263.368 84.2186 264.472C84.9706 265.576 85.3466 266.904 85.3466 268.456C85.3466 269.992 84.9626 271.304 84.1946 272.392C83.4426 273.48 82.4346 274.024 81.1706 274.024C79.9226 274.024 78.9146 273.472 78.1466 272.368C77.3786 271.248 76.9946 270.008 76.9946 268.648C76.9946 266.904 77.3466 265.512 78.0506 264.472C78.8026 263.368 79.9146 262.816 81.3866 262.816ZM81.0986 264.784C80.4266 264.784 79.8746 265.136 79.4426 265.84C79.0106 266.544 78.7946 267.288 78.7946 268.072C78.7946 269.288 79.0346 270.216 79.5146 270.856C79.9946 271.496 80.5386 271.816 81.1466 271.816C82.2346 271.816 82.9306 271.344 83.2346 270.4C83.3626 269.952 83.4266 269.392 83.4266 268.72C83.4266 266.096 82.6506 264.784 81.0986 264.784ZM87.4183 262.792L88.6183 262.816C88.8903 262.816 89.0423 262.808 89.0742 262.792V257.872C89.0903 257.6 89.2263 257.368 89.4823 257.176C89.7383 256.984 89.9783 256.888 90.2023 256.888C90.4263 256.888 90.6023 256.96 90.7303 257.104C90.8743 257.248 90.9383 257.472 90.9223 257.776C90.9063 258.08 90.8983 259.744 90.8983 262.768L93.7063 262.672C94.1863 262.672 94.4263 262.952 94.4263 263.512C94.4263 263.928 94.2983 264.24 94.0423 264.448C93.8023 264.656 93.5383 264.768 93.2503 264.784C92.9783 264.8 92.7063 264.808 92.4343 264.808L90.9703 264.784C90.9703 265.44 91.0343 266.736 91.1623 268.672C91.3063 270.608 91.4183 271.864 91.4983 272.44C91.5783 273 91.5943 273.368 91.5463 273.544C91.4983 273.704 91.4103 273.816 91.2823 273.88C91.0743 273.976 90.7943 274.024 90.4423 274.024C90.0903 274.024 89.8823 273.832 89.8183 273.448C89.4983 271.352 89.2823 268.472 89.1703 264.808C89.0263 264.824 88.4743 264.832 87.5143 264.832C86.5543 264.832 86.0743 264.552 86.0743 263.992C86.0743 263.192 86.5223 262.792 87.4183 262.792ZM101.764 262.792C102.468 262.792 102.82 263.392 102.82 264.592C102.82 264.72 102.82 264.856 102.82 265L102.772 266.68C102.756 267.208 102.748 267.728 102.748 268.24L103.108 273.664C103.108 274.064 102.7 274.264 101.884 274.264C101.836 274.264 101.716 274.264 101.524 274.264C101.348 274.264 101.22 274.192 101.14 274.048C101.076 273.904 101.068 273.728 101.116 273.52C101.18 273.312 101.164 273.08 101.068 272.824C100.332 273.608 99.3563 274 98.1403 274C95.8843 274 94.7563 272.256 94.7563 268.768C94.7563 266.832 95.1163 265.368 95.8363 264.376C96.5723 263.384 97.6203 262.888 98.9803 262.888C99.6203 262.888 100.26 263 100.9 263.224C101.108 262.936 101.396 262.792 101.764 262.792ZM99.2683 264.976C98.3563 264.976 97.6763 265.24 97.2283 265.768C96.7803 266.296 96.5563 267.264 96.5563 268.672C96.5563 271.04 97.1963 272.224 98.4763 272.224C98.8123 272.224 99.1803 272.072 99.5803 271.768C99.9963 271.464 100.284 271.12 100.444 270.736C100.748 269.872 100.9 268.928 100.9 267.904C100.9 266.88 100.772 266.136 100.516 265.672C100.276 265.208 99.8603 264.976 99.2683 264.976ZM104.395 258.472C104.443 257.864 104.539 257.472 104.683 257.296C104.843 257.104 105.091 257.008 105.427 257.008C106.115 257.008 106.459 257.288 106.459 257.848C106.459 258.28 106.419 259.408 106.339 261.232C106.275 263.056 106.243 264.688 106.243 266.128C106.243 267.568 106.299 268.728 106.411 269.608C106.603 271.144 106.875 271.912 107.227 271.912C107.579 271.912 107.843 271.664 108.019 271.168C108.099 270.976 108.227 270.808 108.403 270.664C108.579 270.504 108.803 270.424 109.075 270.424C109.635 270.424 109.915 270.896 109.915 271.84C109.915 272.352 109.635 272.864 109.075 273.376C108.531 273.872 107.987 274.12 107.443 274.12C106.899 274.12 106.459 274.032 106.123 273.856C105.803 273.664 105.539 273.384 105.331 273.016C105.139 272.648 104.979 272.296 104.851 271.96C104.739 271.608 104.659 271.184 104.611 270.688C104.515 269.888 104.443 268.608 104.395 266.848C104.363 265.072 104.347 263.384 104.347 261.784C104.347 260.168 104.363 259.064 104.395 258.472ZM116.517 258.424L126.237 258.28C126.701 258.424 126.933 258.656 126.933 258.976C126.933 259.776 126.605 260.176 125.949 260.176C124.749 260.176 123.477 260.208 122.133 260.272C122.053 261.648 122.013 262.688 122.013 263.392C122.013 264.08 122.013 264.52 122.013 264.712L122.109 273.136C122.109 273.632 121.981 273.92 121.725 274C121.533 274.064 121.293 274.096 121.005 274.096C120.541 274.096 120.285 273.832 120.237 273.304C120.141 272.072 120.093 269.776 120.093 266.416C120.093 263.04 120.141 261.008 120.237 260.32C119.901 260.336 119.405 260.344 118.749 260.344C118.093 260.344 117.277 260.336 116.301 260.32C116.045 260.32 115.845 260.24 115.701 260.08C115.557 259.92 115.485 259.728 115.485 259.504C115.485 259.264 115.581 259.032 115.773 258.808C115.981 258.584 116.229 258.456 116.517 258.424ZM129.184 258.832C129.472 258.832 129.744 258.968 130 259.24C130.256 259.512 130.384 259.8 130.384 260.104C130.384 260.392 130.24 260.688 129.952 260.992C129.68 261.296 129.392 261.448 129.088 261.448C128.784 261.448 128.504 261.32 128.248 261.064C128.008 260.808 127.888 260.48 127.888 260.08C127.888 259.312 128.304 258.896 129.136 258.832C129.152 258.832 129.168 258.832 129.184 258.832ZM130.192 271.408L130.215 273.088C130.215 273.392 130.095 273.648 129.855 273.856C129.616 274.048 129.36 274.144 129.088 274.144C128.688 274.144 128.48 273.944 128.464 273.544C128.256 268.44 128.152 265.616 128.152 265.072C128.152 264.528 128.176 263.864 128.224 263.08C128.256 262.792 128.44 262.648 128.776 262.648C129.624 262.648 130.104 262.992 130.215 263.68C130.264 264.032 130.288 264.312 130.288 264.52L130.192 266.032V271.408ZM134.335 274.024C133.919 274.024 133.671 273.792 133.591 273.328C133.591 270.096 133.399 267.216 133.015 264.688C133.015 264.368 133.127 264.08 133.351 263.824C133.591 263.568 133.855 263.44 134.143 263.44C134.447 263.44 134.671 263.608 134.815 263.944C135.407 263.16 136.199 262.768 137.191 262.768C138.455 262.768 139.431 263.376 140.119 264.592C140.919 263.44 141.975 262.864 143.287 262.864C144.615 262.864 145.607 263.392 146.263 264.448C146.695 265.104 146.999 265.968 147.175 267.04C147.351 268.112 147.439 269.632 147.439 271.6C147.439 272.368 147.359 272.968 147.199 273.4C147.039 273.816 146.703 274.024 146.191 274.024C145.775 274.024 145.567 273.76 145.567 273.232L145.639 270.232C145.639 266.632 144.703 264.832 142.831 264.832C142.239 264.832 141.823 265.04 141.583 265.456C141.311 265.952 141.151 266.472 141.103 267.016C141.039 267.976 141.007 268.848 141.007 269.632V273.112C141.007 273.368 140.879 273.584 140.623 273.76C140.367 273.936 140.103 274.024 139.831 274.024C139.479 274.024 139.255 273.792 139.159 273.328L139.231 268.36C139.231 266.6 138.935 265.504 138.343 265.072C138.055 264.864 137.615 264.76 137.023 264.76C136.447 264.76 136.015 264.976 135.727 265.408C135.455 265.84 135.319 266.536 135.319 267.496L135.463 271.96C135.463 273.336 135.087 274.024 134.335 274.024ZM152.735 262.888C153.583 262.888 154.391 263.136 155.159 263.632C155.927 264.128 156.311 264.744 156.311 265.48C156.311 266.2 155.999 266.904 155.375 267.592C154.751 268.264 153.919 268.672 152.879 268.816C152.431 268.88 151.759 268.912 150.863 268.912C151.039 270.272 151.383 271.168 151.895 271.6C152.055 271.776 152.271 271.864 152.543 271.864C153.535 271.864 154.367 271.552 155.039 270.928C155.711 270.288 156.191 269.968 156.479 269.968C156.607 269.968 156.799 270.088 157.055 270.328C157.311 270.568 157.439 270.792 157.439 271C157.439 271.416 156.935 272.016 155.927 272.8C155.479 273.168 154.935 273.48 154.295 273.736C153.671 273.976 153.087 274.096 152.543 274.096C151.151 274.096 150.127 273.2 149.471 271.408C149.055 270.304 148.847 269.088 148.847 267.76C148.847 266.432 149.159 265.288 149.783 264.328C150.407 263.368 151.391 262.888 152.735 262.888ZM152.855 264.544C152.247 264.544 151.727 264.888 151.295 265.576C151.135 265.816 150.983 266.36 150.839 267.208C153.079 267.208 154.199 266.656 154.199 265.552C154.199 264.88 153.751 264.544 152.855 264.544Z" fill="#18191F"/>
<path d="M309.744 266.416C309.744 264.272 310.128 262.384 310.896 260.752C311.28 259.92 311.8 259.264 312.456 258.784C313.112 258.304 313.864 258.064 314.712 258.064C315.96 258.064 316.976 258.88 317.76 260.512C318.56 262.128 318.96 264.056 318.96 266.296C318.96 268.52 318.592 270.368 317.856 271.84C317.12 273.296 316.08 274.024 314.736 274.024C311.408 274.024 309.744 271.488 309.744 266.416ZM314.496 271.816C315.072 271.816 315.552 271.52 315.936 270.928C316.336 270.32 316.608 269.648 316.752 268.912C316.896 268.16 316.968 267.192 316.968 266.008C316.968 264.808 316.808 263.536 316.488 262.192C316.328 261.456 316.08 260.872 315.744 260.44C315.424 259.992 315.032 259.768 314.568 259.768C313.944 259.768 313.408 260.144 312.96 260.896C312.16 262.256 311.76 264.064 311.76 266.32C311.76 267.792 312.032 269.08 312.576 270.184C313.136 271.272 313.776 271.816 314.496 271.816ZM322.662 263.656C323.318 263.416 323.95 263.296 324.558 263.296C325.166 263.296 325.75 263.392 326.31 263.584C326.886 263.776 327.406 264.072 327.87 264.472C328.35 264.872 328.734 265.424 329.022 266.128C329.31 266.816 329.454 267.616 329.454 268.528C329.454 270.064 329.006 271.36 328.11 272.416C327.214 273.472 326.174 274 324.99 274C323.822 274 322.79 273.736 321.894 273.208C321.014 272.664 320.574 272.072 320.574 271.432C320.574 271.128 320.606 270.904 320.67 270.76C320.75 270.6 320.886 270.472 321.078 270.376C321.27 270.28 321.438 270.232 321.582 270.232C321.742 270.232 321.95 270.328 322.206 270.52C322.478 270.696 322.854 270.952 323.334 271.288C323.814 271.624 324.366 271.792 324.99 271.792C325.614 271.792 326.166 271.48 326.646 270.856C327.126 270.216 327.366 269.52 327.366 268.768C327.366 266.608 326.398 265.528 324.462 265.528C324.046 265.528 323.558 265.568 322.998 265.648C322.454 265.728 322.094 265.776 321.918 265.792C321.758 265.808 321.534 265.752 321.246 265.624C320.91 265.304 320.742 264.288 320.742 262.576C320.742 260.848 320.782 259.736 320.862 259.24C320.942 258.728 321.078 258.432 321.27 258.352C321.606 258.208 322.606 258.136 324.27 258.136C325.95 258.136 327.294 258.296 328.302 258.616C328.622 258.808 328.782 259.088 328.782 259.456C328.782 259.808 328.678 260.096 328.47 260.32C328.278 260.544 328.07 260.632 327.846 260.584C326.518 260.296 325.182 260.152 323.838 260.152C323.422 260.152 323.006 260.168 322.59 260.2C322.59 260.824 322.614 261.976 322.662 263.656ZM332.546 263.944C332.898 263.944 333.202 264.072 333.458 264.328C333.73 264.584 333.89 264.936 333.938 265.384C333.938 265.736 333.802 266.064 333.53 266.368C333.274 266.656 332.978 266.8 332.642 266.8C332.306 266.8 332.002 266.704 331.73 266.512C331.458 266.32 331.322 266.04 331.322 265.672C331.322 265.288 331.442 264.904 331.682 264.52C331.922 264.136 332.21 263.944 332.546 263.944ZM332.882 271.288C333.01 271.288 333.17 271.328 333.362 271.408C333.474 271.472 333.594 271.648 333.722 271.936C333.866 272.224 333.938 272.512 333.938 272.8C333.938 273.088 333.802 273.36 333.53 273.616C333.258 273.856 332.954 273.976 332.618 273.976C332.282 273.976 332.002 273.856 331.778 273.616C331.57 273.36 331.466 273.04 331.466 272.656C331.466 271.744 331.938 271.288 332.882 271.288ZM336.228 266.416C336.228 264.272 336.612 262.384 337.38 260.752C337.764 259.92 338.284 259.264 338.94 258.784C339.596 258.304 340.348 258.064 341.196 258.064C342.444 258.064 343.46 258.88 344.244 260.512C345.044 262.128 345.444 264.056 345.444 266.296C345.444 268.52 345.076 270.368 344.34 271.84C343.604 273.296 342.564 274.024 341.22 274.024C337.892 274.024 336.228 271.488 336.228 266.416ZM340.98 271.816C341.556 271.816 342.036 271.52 342.42 270.928C342.82 270.32 343.092 269.648 343.236 268.912C343.38 268.16 343.452 267.192 343.452 266.008C343.452 264.808 343.292 263.536 342.972 262.192C342.812 261.456 342.564 260.872 342.228 260.44C341.908 259.992 341.516 259.768 341.052 259.768C340.428 259.768 339.892 260.144 339.444 260.896C338.644 262.256 338.244 264.064 338.244 266.32C338.244 267.792 338.516 269.08 339.06 270.184C339.62 271.272 340.26 271.816 340.98 271.816ZM346.986 266.416C346.986 264.272 347.37 262.384 348.138 260.752C348.522 259.92 349.042 259.264 349.698 258.784C350.354 258.304 351.106 258.064 351.954 258.064C353.202 258.064 354.218 258.88 355.002 260.512C355.802 262.128 356.202 264.056 356.202 266.296C356.202 268.52 355.834 270.368 355.098 271.84C354.362 273.296 353.322 274.024 351.978 274.024C348.65 274.024 346.986 271.488 346.986 266.416ZM351.738 271.816C352.314 271.816 352.794 271.52 353.178 270.928C353.578 270.32 353.85 269.648 353.994 268.912C354.138 268.16 354.21 267.192 354.21 266.008C354.21 264.808 354.05 263.536 353.73 262.192C353.57 261.456 353.322 260.872 352.986 260.44C352.666 259.992 352.274 259.768 351.81 259.768C351.186 259.768 350.65 260.144 350.202 260.896C349.402 262.256 349.002 264.064 349.002 266.32C349.002 267.792 349.274 269.08 349.818 270.184C350.378 271.272 351.018 271.816 351.738 271.816Z" fill="#18191F"/>
<path d="M70.056 290.424L79.776 290.28C80.24 290.424 80.472 290.656 80.472 290.976C80.472 291.776 80.144 292.176 79.488 292.176C78.288 292.176 77.016 292.208 75.672 292.272C75.592 293.648 75.552 294.688 75.552 295.392C75.552 296.08 75.552 296.52 75.552 296.712L75.648 305.136C75.648 305.632 75.52 305.92 75.264 306C75.072 306.064 74.832 306.096 74.544 306.096C74.08 306.096 73.824 305.832 73.776 305.304C73.68 304.072 73.632 301.776 73.632 298.416C73.632 295.04 73.68 293.008 73.776 292.32C73.44 292.336 72.944 292.344 72.288 292.344C71.632 292.344 70.816 292.336 69.84 292.32C69.584 292.32 69.384 292.24 69.24 292.08C69.096 291.92 69.024 291.728 69.024 291.504C69.024 291.264 69.12 291.032 69.312 290.808C69.52 290.584 69.768 290.456 70.056 290.424ZM85.3866 294.816C86.5386 294.816 87.4826 295.368 88.2186 296.472C88.9706 297.576 89.3466 298.904 89.3466 300.456C89.3466 301.992 88.9626 303.304 88.1946 304.392C87.4426 305.48 86.4346 306.024 85.1706 306.024C83.9226 306.024 82.9146 305.472 82.1466 304.368C81.3786 303.248 80.9946 302.008 80.9946 300.648C80.9946 298.904 81.3466 297.512 82.0506 296.472C82.8026 295.368 83.9146 294.816 85.3866 294.816ZM85.0986 296.784C84.4266 296.784 83.8746 297.136 83.4426 297.84C83.0106 298.544 82.7946 299.288 82.7946 300.072C82.7946 301.288 83.0346 302.216 83.5146 302.856C83.9946 303.496 84.5386 303.816 85.1466 303.816C86.2346 303.816 86.9306 303.344 87.2346 302.4C87.3626 301.952 87.4266 301.392 87.4266 300.72C87.4266 298.096 86.6506 296.784 85.0986 296.784ZM91.4183 294.792L92.6183 294.816C92.8903 294.816 93.0423 294.808 93.0742 294.792V289.872C93.0903 289.6 93.2263 289.368 93.4823 289.176C93.7383 288.984 93.9783 288.888 94.2023 288.888C94.4263 288.888 94.6023 288.96 94.7303 289.104C94.8743 289.248 94.9383 289.472 94.9223 289.776C94.9063 290.08 94.8983 291.744 94.8983 294.768L97.7063 294.672C98.1863 294.672 98.4263 294.952 98.4263 295.512C98.4263 295.928 98.2983 296.24 98.0423 296.448C97.8023 296.656 97.5383 296.768 97.2503 296.784C96.9783 296.8 96.7063 296.808 96.4343 296.808L94.9703 296.784C94.9703 297.44 95.0343 298.736 95.1623 300.672C95.3063 302.608 95.4183 303.864 95.4983 304.44C95.5783 305 95.5943 305.368 95.5463 305.544C95.4983 305.704 95.4103 305.816 95.2823 305.88C95.0743 305.976 94.7943 306.024 94.4423 306.024C94.0903 306.024 93.8823 305.832 93.8183 305.448C93.4983 303.352 93.2823 300.472 93.1703 296.808C93.0263 296.824 92.4743 296.832 91.5143 296.832C90.5543 296.832 90.0743 296.552 90.0743 295.992C90.0743 295.192 90.5223 294.792 91.4183 294.792ZM105.764 294.792C106.468 294.792 106.82 295.392 106.82 296.592C106.82 296.72 106.82 296.856 106.82 297L106.772 298.68C106.756 299.208 106.748 299.728 106.748 300.24L107.108 305.664C107.108 306.064 106.7 306.264 105.884 306.264C105.836 306.264 105.716 306.264 105.524 306.264C105.348 306.264 105.22 306.192 105.14 306.048C105.076 305.904 105.068 305.728 105.116 305.52C105.18 305.312 105.164 305.08 105.068 304.824C104.332 305.608 103.356 306 102.14 306C99.8843 306 98.7563 304.256 98.7563 300.768C98.7563 298.832 99.1163 297.368 99.8363 296.376C100.572 295.384 101.62 294.888 102.98 294.888C103.62 294.888 104.26 295 104.9 295.224C105.108 294.936 105.396 294.792 105.764 294.792ZM103.268 296.976C102.356 296.976 101.676 297.24 101.228 297.768C100.78 298.296 100.556 299.264 100.556 300.672C100.556 303.04 101.196 304.224 102.476 304.224C102.812 304.224 103.18 304.072 103.58 303.768C103.996 303.464 104.284 303.12 104.444 302.736C104.748 301.872 104.9 300.928 104.9 299.904C104.9 298.88 104.772 298.136 104.516 297.672C104.276 297.208 103.86 296.976 103.268 296.976ZM108.395 290.472C108.443 289.864 108.539 289.472 108.683 289.296C108.843 289.104 109.091 289.008 109.427 289.008C110.115 289.008 110.459 289.288 110.459 289.848C110.459 290.28 110.419 291.408 110.339 293.232C110.275 295.056 110.243 296.688 110.243 298.128C110.243 299.568 110.299 300.728 110.411 301.608C110.603 303.144 110.875 303.912 111.227 303.912C111.579 303.912 111.843 303.664 112.019 303.168C112.099 302.976 112.227 302.808 112.403 302.664C112.579 302.504 112.803 302.424 113.075 302.424C113.635 302.424 113.915 302.896 113.915 303.84C113.915 304.352 113.635 304.864 113.075 305.376C112.531 305.872 111.987 306.12 111.443 306.12C110.899 306.12 110.459 306.032 110.123 305.856C109.803 305.664 109.539 305.384 109.331 305.016C109.139 304.648 108.979 304.296 108.851 303.96C108.739 303.608 108.659 303.184 108.611 302.688C108.515 301.888 108.443 300.608 108.395 298.848C108.363 297.072 108.347 295.384 108.347 293.784C108.347 292.168 108.363 291.064 108.395 290.472ZM125.845 290.112C126.885 290.112 127.765 290.288 128.485 290.64C129.221 290.992 129.589 291.44 129.589 291.984C129.589 292.224 129.525 292.432 129.397 292.608C129.285 292.784 129.109 292.872 128.869 292.872C128.645 292.872 128.149 292.696 127.381 292.344C126.613 291.976 125.909 291.792 125.269 291.792C124.645 291.792 123.997 291.992 123.325 292.392C122.653 292.792 122.317 293.28 122.317 293.856C122.317 294.64 122.725 295.216 123.541 295.584C124.149 295.856 125.021 296.104 126.157 296.328C127.293 296.536 128.221 296.976 128.941 297.648C129.661 298.304 130.021 299.304 130.021 300.648C130.021 302.696 129.405 304.208 128.173 305.184C127.485 305.728 126.509 306 125.245 306C123.997 306 122.749 305.656 121.501 304.968C120.685 304.536 120.277 304.104 120.277 303.672C120.277 303.512 120.341 303.336 120.469 303.144C120.613 302.952 120.805 302.792 121.045 302.664C121.285 302.536 121.501 302.52 121.693 302.616C121.901 302.696 122.229 302.848 122.677 303.072C123.125 303.296 123.453 303.448 123.661 303.528C124.333 303.784 124.965 303.912 125.557 303.912C126.149 303.912 126.717 303.624 127.261 303.048C127.821 302.456 128.101 301.736 128.101 300.888C128.101 299.768 127.541 298.984 126.421 298.536C125.877 298.312 125.261 298.144 124.573 298.032C123.149 297.776 122.077 297.352 121.357 296.76C120.637 296.152 120.277 295.24 120.277 294.024C120.277 292.808 120.797 291.856 121.837 291.168C122.877 290.464 124.213 290.112 125.845 290.112ZM131.053 300.384C131.053 299.312 131.333 298.336 131.893 297.456C132.469 296.576 133.197 295.92 134.077 295.488C134.957 295.04 135.813 294.816 136.645 294.816C137.477 294.816 138.141 294.92 138.637 295.128C139.149 295.32 139.405 295.584 139.405 295.92C139.405 296.24 139.309 296.568 139.117 296.904C138.941 297.224 138.701 297.384 138.397 297.384C138.285 297.384 137.973 297.296 137.461 297.12C136.965 296.928 136.645 296.832 136.501 296.832C135.573 296.832 134.781 297.176 134.125 297.864C133.469 298.536 133.141 299.432 133.141 300.552C133.141 301.672 133.317 302.512 133.669 303.072C134.037 303.616 134.661 303.888 135.541 303.888C135.893 303.888 136.493 303.688 137.341 303.288C138.205 302.872 138.741 302.664 138.949 302.664C139.157 302.664 139.325 302.728 139.453 302.856C139.581 302.984 139.645 303.144 139.645 303.336C139.645 303.72 139.397 304.128 138.901 304.56C138.421 304.976 137.821 305.328 137.101 305.616C136.381 305.888 135.733 306.024 135.157 306.024C133.877 306.024 132.869 305.52 132.133 304.512C131.413 303.504 131.053 302.128 131.053 300.384ZM144.941 294.816C146.093 294.816 147.037 295.368 147.773 296.472C148.525 297.576 148.901 298.904 148.901 300.456C148.901 301.992 148.517 303.304 147.749 304.392C146.997 305.48 145.989 306.024 144.725 306.024C143.477 306.024 142.469 305.472 141.701 304.368C140.933 303.248 140.549 302.008 140.549 300.648C140.549 298.904 140.901 297.512 141.605 296.472C142.357 295.368 143.469 294.816 144.941 294.816ZM144.653 296.784C143.981 296.784 143.429 297.136 142.997 297.84C142.565 298.544 142.349 299.288 142.349 300.072C142.349 301.288 142.589 302.216 143.069 302.856C143.549 303.496 144.093 303.816 144.701 303.816C145.789 303.816 146.485 303.344 146.789 302.4C146.917 301.952 146.981 301.392 146.981 300.72C146.981 298.096 146.205 296.784 144.653 296.784ZM153.469 302.496L153.493 304.968C153.493 305.256 153.357 305.52 153.085 305.76C152.829 306 152.573 306.12 152.317 306.12C151.949 306.12 151.717 305.832 151.621 305.256C151.605 305.128 151.541 303.96 151.429 301.752C151.317 299.528 151.101 297.784 150.781 296.52C150.637 295.912 150.565 295.552 150.565 295.44C150.565 294.912 150.885 294.648 151.525 294.648C151.797 294.648 152.013 294.752 152.173 294.96C152.333 295.168 152.429 295.384 152.461 295.608C152.509 295.816 152.549 296.104 152.581 296.472C152.613 296.84 152.637 297.072 152.653 297.168C152.989 296.368 153.493 295.768 154.165 295.368C154.837 294.968 155.573 294.768 156.373 294.768C157.685 294.768 158.341 295.104 158.341 295.776C158.341 296.112 158.221 296.384 157.981 296.592C157.757 296.784 157.493 296.88 157.189 296.88C155.829 296.88 154.869 297.312 154.309 298.176C153.749 299.04 153.469 300.48 153.469 302.496ZM163.063 294.888C163.911 294.888 164.719 295.136 165.487 295.632C166.255 296.128 166.639 296.744 166.639 297.48C166.639 298.2 166.327 298.904 165.703 299.592C165.079 300.264 164.247 300.672 163.207 300.816C162.759 300.88 162.087 300.912 161.191 300.912C161.367 302.272 161.711 303.168 162.223 303.6C162.383 303.776 162.599 303.864 162.871 303.864C163.863 303.864 164.695 303.552 165.367 302.928C166.039 302.288 166.519 301.968 166.807 301.968C166.935 301.968 167.127 302.088 167.383 302.328C167.639 302.568 167.767 302.792 167.767 303C167.767 303.416 167.263 304.016 166.255 304.8C165.807 305.168 165.263 305.48 164.623 305.736C163.999 305.976 163.415 306.096 162.871 306.096C161.479 306.096 160.455 305.2 159.799 303.408C159.383 302.304 159.175 301.088 159.175 299.76C159.175 298.432 159.487 297.288 160.111 296.328C160.735 295.368 161.719 294.888 163.063 294.888ZM163.183 296.544C162.575 296.544 162.055 296.888 161.623 297.576C161.463 297.816 161.311 298.36 161.167 299.208C163.407 299.208 164.527 298.656 164.527 297.552C164.527 296.88 164.079 296.544 163.183 296.544Z" fill="#18191F"/>
<path d="M326.107 304.872C326.107 305.656 325.683 306.048 324.835 306.048C324.659 306.048 324.499 305.976 324.355 305.832C324.227 305.672 324.163 305.432 324.163 305.112L324.091 299.016C324.091 297 324.115 295.104 324.163 293.328C323.619 293.808 323.091 294.36 322.579 294.984C322.067 295.608 321.715 296.024 321.523 296.232C321.347 296.44 321.107 296.648 320.803 296.856C320.515 297.048 320.243 297.144 319.987 297.144C319.731 297.144 319.523 297.056 319.363 296.88C319.219 296.704 319.147 296.488 319.147 296.232C319.147 295.976 319.331 295.632 319.699 295.2C320.083 294.752 321.475 293.256 323.875 290.712C324.243 290.376 324.707 290.208 325.267 290.208C325.539 290.208 325.763 290.288 325.939 290.448C326.115 290.608 326.203 290.792 326.203 291L326.035 297.456L326.107 304.872ZM334.826 304.872C334.826 305.656 334.402 306.048 333.554 306.048C333.378 306.048 333.218 305.976 333.074 305.832C332.946 305.672 332.882 305.432 332.882 305.112L332.81 299.016C332.81 297 332.834 295.104 332.882 293.328C332.338 293.808 331.81 294.36 331.298 294.984C330.786 295.608 330.434 296.024 330.242 296.232C330.066 296.44 329.826 296.648 329.522 296.856C329.234 297.048 328.962 297.144 328.706 297.144C328.45 297.144 328.242 297.056 328.082 296.88C327.938 296.704 327.866 296.488 327.866 296.232C327.866 295.976 328.05 295.632 328.418 295.2C328.802 294.752 330.194 293.256 332.594 290.712C332.962 290.376 333.426 290.208 333.986 290.208C334.258 290.208 334.482 290.288 334.658 290.448C334.834 290.608 334.922 290.792 334.922 291L334.754 297.456L334.826 304.872ZM342.993 306.048L339.465 306C339.305 306 339.145 306 338.985 306C337.401 306 336.609 305.696 336.609 305.088C336.609 304.656 336.689 304.248 336.849 303.864C337.009 303.48 337.161 303.192 337.305 303C337.449 302.808 337.737 302.488 338.169 302.04C338.601 301.592 338.913 301.256 339.105 301.032C339.297 300.808 339.873 300.24 340.833 299.328C341.809 298.416 342.537 297.592 343.017 296.856C343.513 296.12 343.761 295.344 343.761 294.528C343.761 293.264 343.257 292.448 342.249 292.08C341.961 291.984 341.665 291.936 341.361 291.936C340.673 291.936 339.985 292.232 339.297 292.824C339.025 293.08 338.737 293.208 338.433 293.208C338.337 293.208 338.249 293.2 338.169 293.184C337.769 293.088 337.569 292.808 337.569 292.344C337.569 291.72 338.009 291.2 338.889 290.784C339.833 290.336 340.857 290.112 341.961 290.112C343.081 290.112 343.993 290.52 344.697 291.336C345.417 292.136 345.777 293.136 345.777 294.336C345.777 296.048 345.249 297.52 344.193 298.752C343.697 299.328 343.193 299.864 342.681 300.36C341.065 301.896 339.985 303.064 339.441 303.864C340.161 303.912 341.049 303.936 342.105 303.936C343.177 303.936 344.497 303.872 346.065 303.744C346.305 303.792 346.497 303.904 346.641 304.08C346.801 304.24 346.881 304.424 346.881 304.632C346.881 305.176 346.593 305.552 346.017 305.76C345.441 305.952 344.433 306.048 342.993 306.048ZM355.324 293.496L355.3 295.896C355.3 296.44 355.3 297.952 355.3 300.432L355.348 304.992C355.348 305.28 355.22 305.52 354.964 305.712C354.724 305.888 354.492 305.976 354.268 305.976C354.06 305.976 353.892 305.88 353.764 305.688C353.636 305.48 353.564 305.248 353.548 304.992C353.436 302.64 353.38 300.208 353.38 297.696C352.964 298.24 352.124 298.512 350.86 298.512C349.996 298.512 349.284 298.064 348.724 297.168C348.164 296.272 347.884 295.304 347.884 294.264C347.884 292.888 348.308 291.84 349.156 291.12C350.02 290.384 351.108 290.016 352.42 290.016C353.732 290.016 354.636 290.52 355.132 291.528C355.26 291.8 355.324 292.456 355.324 293.496ZM353.428 294.072L353.452 292.896C353.452 292.512 353.42 292.264 353.355 292.152C353.292 292.024 353.212 291.928 353.116 291.864C353.004 291.752 352.868 291.696 352.708 291.696C352.564 291.696 352.364 291.728 352.108 291.792C351.868 291.84 351.548 291.952 351.148 292.128C350.764 292.288 350.42 292.568 350.116 292.968C349.828 293.352 349.684 293.856 349.684 294.48C349.684 295.104 349.844 295.616 350.164 296.016C350.484 296.416 350.82 296.616 351.172 296.616C351.268 296.616 351.372 296.6 351.484 296.568C352.444 296.312 353.092 296.056 353.428 295.8V294.072Z" fill="#18191F"/>
<path d="M70.056 321.424L79.776 321.28C80.24 321.424 80.472 321.656 80.472 321.976C80.472 322.776 80.144 323.176 79.488 323.176C78.288 323.176 77.016 323.208 75.672 323.272C75.592 324.648 75.552 325.688 75.552 326.392C75.552 327.08 75.552 327.52 75.552 327.712L75.648 336.136C75.648 336.632 75.52 336.92 75.264 337C75.072 337.064 74.832 337.096 74.544 337.096C74.08 337.096 73.824 336.832 73.776 336.304C73.68 335.072 73.632 332.776 73.632 329.416C73.632 326.04 73.68 324.008 73.776 323.32C73.44 323.336 72.944 323.344 72.288 323.344C71.632 323.344 70.816 323.336 69.84 323.32C69.584 323.32 69.384 323.24 69.24 323.08C69.096 322.92 69.024 322.728 69.024 322.504C69.024 322.264 69.12 322.032 69.312 321.808C69.52 321.584 69.768 321.456 70.056 321.424ZM85.3866 325.816C86.5386 325.816 87.4826 326.368 88.2186 327.472C88.9706 328.576 89.3466 329.904 89.3466 331.456C89.3466 332.992 88.9626 334.304 88.1946 335.392C87.4426 336.48 86.4346 337.024 85.1706 337.024C83.9226 337.024 82.9146 336.472 82.1466 335.368C81.3786 334.248 80.9946 333.008 80.9946 331.648C80.9946 329.904 81.3466 328.512 82.0506 327.472C82.8026 326.368 83.9146 325.816 85.3866 325.816ZM85.0986 327.784C84.4266 327.784 83.8746 328.136 83.4426 328.84C83.0106 329.544 82.7946 330.288 82.7946 331.072C82.7946 332.288 83.0346 333.216 83.5146 333.856C83.9946 334.496 84.5386 334.816 85.1466 334.816C86.2346 334.816 86.9306 334.344 87.2346 333.4C87.3626 332.952 87.4266 332.392 87.4266 331.72C87.4266 329.096 86.6506 327.784 85.0986 327.784ZM91.4183 325.792L92.6183 325.816C92.8903 325.816 93.0423 325.808 93.0742 325.792V320.872C93.0903 320.6 93.2263 320.368 93.4823 320.176C93.7383 319.984 93.9783 319.888 94.2023 319.888C94.4263 319.888 94.6023 319.96 94.7303 320.104C94.8743 320.248 94.9383 320.472 94.9223 320.776C94.9063 321.08 94.8983 322.744 94.8983 325.768L97.7063 325.672C98.1863 325.672 98.4263 325.952 98.4263 326.512C98.4263 326.928 98.2983 327.24 98.0423 327.448C97.8023 327.656 97.5383 327.768 97.2503 327.784C96.9783 327.8 96.7063 327.808 96.4343 327.808L94.9703 327.784C94.9703 328.44 95.0343 329.736 95.1623 331.672C95.3063 333.608 95.4183 334.864 95.4983 335.44C95.5783 336 95.5943 336.368 95.5463 336.544C95.4983 336.704 95.4103 336.816 95.2823 336.88C95.0743 336.976 94.7943 337.024 94.4423 337.024C94.0903 337.024 93.8823 336.832 93.8183 336.448C93.4983 334.352 93.2823 331.472 93.1703 327.808C93.0263 327.824 92.4743 327.832 91.5143 327.832C90.5543 327.832 90.0743 327.552 90.0743 326.992C90.0743 326.192 90.5223 325.792 91.4183 325.792ZM105.764 325.792C106.468 325.792 106.82 326.392 106.82 327.592C106.82 327.72 106.82 327.856 106.82 328L106.772 329.68C106.756 330.208 106.748 330.728 106.748 331.24L107.108 336.664C107.108 337.064 106.7 337.264 105.884 337.264C105.836 337.264 105.716 337.264 105.524 337.264C105.348 337.264 105.22 337.192 105.14 337.048C105.076 336.904 105.068 336.728 105.116 336.52C105.18 336.312 105.164 336.08 105.068 335.824C104.332 336.608 103.356 337 102.14 337C99.8843 337 98.7563 335.256 98.7563 331.768C98.7563 329.832 99.1163 328.368 99.8363 327.376C100.572 326.384 101.62 325.888 102.98 325.888C103.62 325.888 104.26 326 104.9 326.224C105.108 325.936 105.396 325.792 105.764 325.792ZM103.268 327.976C102.356 327.976 101.676 328.24 101.228 328.768C100.78 329.296 100.556 330.264 100.556 331.672C100.556 334.04 101.196 335.224 102.476 335.224C102.812 335.224 103.18 335.072 103.58 334.768C103.996 334.464 104.284 334.12 104.444 333.736C104.748 332.872 104.9 331.928 104.9 330.904C104.9 329.88 104.772 329.136 104.516 328.672C104.276 328.208 103.86 327.976 103.268 327.976ZM108.395 321.472C108.443 320.864 108.539 320.472 108.683 320.296C108.843 320.104 109.091 320.008 109.427 320.008C110.115 320.008 110.459 320.288 110.459 320.848C110.459 321.28 110.419 322.408 110.339 324.232C110.275 326.056 110.243 327.688 110.243 329.128C110.243 330.568 110.299 331.728 110.411 332.608C110.603 334.144 110.875 334.912 111.227 334.912C111.579 334.912 111.843 334.664 112.019 334.168C112.099 333.976 112.227 333.808 112.403 333.664C112.579 333.504 112.803 333.424 113.075 333.424C113.635 333.424 113.915 333.896 113.915 334.84C113.915 335.352 113.635 335.864 113.075 336.376C112.531 336.872 111.987 337.12 111.443 337.12C110.899 337.12 110.459 337.032 110.123 336.856C109.803 336.664 109.539 336.384 109.331 336.016C109.139 335.648 108.979 335.296 108.851 334.96C108.739 334.608 108.659 334.184 108.611 333.688C108.515 332.888 108.443 331.608 108.395 329.848C108.363 328.072 108.347 326.384 108.347 324.784C108.347 323.168 108.363 322.064 108.395 321.472ZM125.845 321.112C126.885 321.112 127.765 321.288 128.485 321.64C129.221 321.992 129.589 322.44 129.589 322.984C129.589 323.224 129.525 323.432 129.397 323.608C129.285 323.784 129.109 323.872 128.869 323.872C128.645 323.872 128.149 323.696 127.381 323.344C126.613 322.976 125.909 322.792 125.269 322.792C124.645 322.792 123.997 322.992 123.325 323.392C122.653 323.792 122.317 324.28 122.317 324.856C122.317 325.64 122.725 326.216 123.541 326.584C124.149 326.856 125.021 327.104 126.157 327.328C127.293 327.536 128.221 327.976 128.941 328.648C129.661 329.304 130.021 330.304 130.021 331.648C130.021 333.696 129.405 335.208 128.173 336.184C127.485 336.728 126.509 337 125.245 337C123.997 337 122.749 336.656 121.501 335.968C120.685 335.536 120.277 335.104 120.277 334.672C120.277 334.512 120.341 334.336 120.469 334.144C120.613 333.952 120.805 333.792 121.045 333.664C121.285 333.536 121.501 333.52 121.693 333.616C121.901 333.696 122.229 333.848 122.677 334.072C123.125 334.296 123.453 334.448 123.661 334.528C124.333 334.784 124.965 334.912 125.557 334.912C126.149 334.912 126.717 334.624 127.261 334.048C127.821 333.456 128.101 332.736 128.101 331.888C128.101 330.768 127.541 329.984 126.421 329.536C125.877 329.312 125.261 329.144 124.573 329.032C123.149 328.776 122.077 328.352 121.357 327.76C120.637 327.152 120.277 326.24 120.277 325.024C120.277 323.808 120.797 322.856 121.837 322.168C122.877 321.464 124.213 321.112 125.845 321.112ZM131.341 326.728C131.405 326.456 131.541 326.232 131.749 326.056C131.957 325.864 132.165 325.768 132.373 325.768C132.597 325.768 132.765 325.808 132.877 325.888C133.005 325.968 133.077 326.04 133.093 326.104C133.125 326.168 133.157 326.28 133.189 326.44C133.093 327.688 133.045 328.816 133.045 329.824C133.045 330.816 133.165 331.96 133.405 333.256C133.645 334.536 133.909 335.176 134.197 335.176C134.629 335.176 135.173 334.936 135.829 334.456C136.501 333.976 136.981 333.472 137.269 332.944C137.077 330.64 136.981 328.664 136.981 327.016C136.981 326.68 137.085 326.392 137.293 326.152C137.517 325.912 137.781 325.792 138.085 325.792C138.581 325.792 138.829 326.128 138.829 326.8C138.829 327.936 138.909 329.624 139.069 331.864C139.245 334.104 139.421 335.528 139.597 336.136C139.629 336.264 139.645 336.416 139.645 336.592C139.645 336.752 139.533 336.904 139.309 337.048C139.101 337.208 138.821 337.288 138.469 337.288C138.133 337.288 137.909 337.096 137.797 336.712C137.765 336.392 137.685 335.912 137.557 335.272C136.437 336.44 135.309 337.024 134.173 337.024C133.645 337.024 133.173 336.824 132.757 336.424C132.341 336.024 132.013 335.48 131.773 334.792C131.357 333.464 131.149 332.216 131.149 331.048C131.149 329.88 131.213 328.44 131.341 326.728ZM141.046 320.776C141.046 320.136 141.446 319.816 142.246 319.816C142.614 319.816 142.83 320.04 142.894 320.488V324.088C142.894 324.76 142.902 325.432 142.918 326.104C143.238 326.008 143.646 325.96 144.142 325.96C145.694 325.96 146.894 326.48 147.742 327.52C148.59 328.56 149.014 329.864 149.014 331.432C149.014 333 148.51 334.328 147.502 335.416C146.51 336.488 145.23 337.024 143.662 337.024C142.094 337.024 141.31 336.584 141.31 335.704C141.31 334.808 141.262 332.552 141.166 328.936C141.086 325.304 141.046 322.584 141.046 320.776ZM145.894 328.504C145.318 328.056 144.71 327.832 144.07 327.832C143.718 327.832 143.358 327.896 142.99 328.024C143.086 329.336 143.134 331.664 143.134 335.008C143.406 335.104 143.686 335.152 143.974 335.152C144.598 335.152 145.222 334.92 145.846 334.456C146.774 333.816 147.238 332.84 147.238 331.528C147.238 330.2 146.79 329.192 145.894 328.504ZM152.257 337.024C151.841 337.024 151.593 336.792 151.513 336.328C151.513 333.096 151.321 330.216 150.937 327.688C150.937 327.368 151.049 327.08 151.273 326.824C151.513 326.568 151.777 326.44 152.065 326.44C152.369 326.44 152.593 326.608 152.737 326.944C153.329 326.16 154.121 325.768 155.113 325.768C156.377 325.768 157.353 326.376 158.041 327.592C158.841 326.44 159.897 325.864 161.209 325.864C162.537 325.864 163.529 326.392 164.185 327.448C164.617 328.104 164.921 328.968 165.097 330.04C165.273 331.112 165.361 332.632 165.361 334.6C165.361 335.368 165.281 335.968 165.121 336.4C164.961 336.816 164.625 337.024 164.113 337.024C163.697 337.024 163.489 336.76 163.489 336.232L163.561 333.232C163.561 329.632 162.625 327.832 160.753 327.832C160.161 327.832 159.745 328.04 159.505 328.456C159.233 328.952 159.073 329.472 159.025 330.016C158.961 330.976 158.929 331.848 158.929 332.632V336.112C158.929 336.368 158.801 336.584 158.545 336.76C158.289 336.936 158.025 337.024 157.753 337.024C157.401 337.024 157.177 336.792 157.081 336.328L157.153 331.36C157.153 329.6 156.857 328.504 156.265 328.072C155.977 327.864 155.537 327.76 154.945 327.76C154.369 327.76 153.937 327.976 153.649 328.408C153.377 328.84 153.241 329.536 153.241 330.496L153.385 334.96C153.385 336.336 153.009 337.024 152.257 337.024ZM168.785 321.832C169.073 321.832 169.345 321.968 169.601 322.24C169.857 322.512 169.985 322.8 169.985 323.104C169.985 323.392 169.841 323.688 169.553 323.992C169.281 324.296 168.993 324.448 168.689 324.448C168.385 324.448 168.105 324.32 167.849 324.064C167.609 323.808 167.489 323.48 167.489 323.08C167.489 322.312 167.905 321.896 168.737 321.832C168.753 321.832 168.769 321.832 168.785 321.832ZM169.793 334.408L169.817 336.088C169.817 336.392 169.697 336.648 169.457 336.856C169.217 337.048 168.961 337.144 168.689 337.144C168.289 337.144 168.081 336.944 168.065 336.544C167.857 331.44 167.753 328.616 167.753 328.072C167.753 327.528 167.777 326.864 167.825 326.08C167.857 325.792 168.041 325.648 168.377 325.648C169.225 325.648 169.705 325.992 169.817 326.68C169.865 327.032 169.889 327.312 169.889 327.52L169.793 329.032V334.408ZM172.976 328.84C172.976 327.896 173.312 327.144 173.984 326.584C174.656 326.024 175.432 325.744 176.312 325.744C177.208 325.744 178.064 325.904 178.88 326.224C179.696 326.544 180.104 326.968 180.104 327.496C180.104 327.768 180 327.984 179.792 328.144C179.584 328.304 179.4 328.384 179.24 328.384C179.096 328.384 178.976 328.384 178.88 328.384C178.8 328.368 178.48 328.216 177.92 327.928C177.376 327.64 176.872 327.496 176.408 327.496C175.944 327.496 175.544 327.616 175.208 327.856C174.888 328.08 174.728 328.416 174.728 328.864C174.728 329.312 174.912 329.664 175.28 329.92C175.664 330.176 176.328 330.4 177.272 330.592C178.216 330.768 178.936 331.024 179.432 331.36C179.944 331.696 180.2 332.32 180.2 333.232C180.2 334.56 179.848 335.504 179.144 336.064C178.456 336.608 177.616 336.88 176.624 336.88C175.632 336.88 174.784 336.744 174.08 336.472C173.392 336.2 173.048 335.792 173.048 335.248C173.048 334.624 173.36 334.312 173.984 334.312C174.144 334.312 174.496 334.424 175.04 334.648C175.584 334.872 176.12 334.984 176.648 334.984C177.192 334.984 177.6 334.816 177.872 334.48C178.16 334.128 178.304 333.728 178.304 333.28C178.304 332.832 178.12 332.512 177.752 332.32C177.384 332.112 176.824 331.944 176.072 331.816C175.32 331.688 174.768 331.552 174.416 331.408C173.456 331.024 172.976 330.168 172.976 328.84ZM182.211 328.84C182.211 327.896 182.547 327.144 183.219 326.584C183.891 326.024 184.667 325.744 185.547 325.744C186.443 325.744 187.299 325.904 188.115 326.224C188.931 326.544 189.339 326.968 189.339 327.496C189.339 327.768 189.235 327.984 189.027 328.144C188.819 328.304 188.635 328.384 188.475 328.384C188.331 328.384 188.211 328.384 188.115 328.384C188.035 328.368 187.715 328.216 187.155 327.928C186.611 327.64 186.107 327.496 185.643 327.496C185.179 327.496 184.779 327.616 184.443 327.856C184.123 328.08 183.963 328.416 183.963 328.864C183.963 329.312 184.147 329.664 184.515 329.92C184.899 330.176 185.563 330.4 186.507 330.592C187.451 330.768 188.171 331.024 188.667 331.36C189.179 331.696 189.435 332.32 189.435 333.232C189.435 334.56 189.083 335.504 188.379 336.064C187.691 336.608 186.851 336.88 185.859 336.88C184.867 336.88 184.019 336.744 183.315 336.472C182.627 336.2 182.283 335.792 182.283 335.248C182.283 334.624 182.595 334.312 183.219 334.312C183.379 334.312 183.731 334.424 184.275 334.648C184.819 334.872 185.355 334.984 185.883 334.984C186.427 334.984 186.835 334.816 187.107 334.48C187.395 334.128 187.539 333.728 187.539 333.28C187.539 332.832 187.355 332.512 186.987 332.32C186.619 332.112 186.059 331.944 185.307 331.816C184.555 331.688 184.003 331.552 183.651 331.408C182.691 331.024 182.211 330.168 182.211 328.84ZM192.621 321.832C192.909 321.832 193.181 321.968 193.437 322.24C193.693 322.512 193.821 322.8 193.821 323.104C193.821 323.392 193.677 323.688 193.389 323.992C193.117 324.296 192.829 324.448 192.525 324.448C192.221 324.448 191.941 324.32 191.685 324.064C191.445 323.808 191.325 323.48 191.325 323.08C191.325 322.312 191.741 321.896 192.573 321.832C192.589 321.832 192.605 321.832 192.621 321.832ZM193.629 334.408L193.653 336.088C193.653 336.392 193.533 336.648 193.293 336.856C193.053 337.048 192.797 337.144 192.525 337.144C192.125 337.144 191.917 336.944 191.901 336.544C191.693 331.44 191.589 328.616 191.589 328.072C191.589 327.528 191.613 326.864 191.661 326.08C191.693 325.792 191.877 325.648 192.213 325.648C193.061 325.648 193.541 325.992 193.653 326.68C193.701 327.032 193.725 327.312 193.725 327.52L193.629 329.032V334.408ZM200.652 325.816C201.804 325.816 202.748 326.368 203.484 327.472C204.236 328.576 204.612 329.904 204.612 331.456C204.612 332.992 204.228 334.304 203.46 335.392C202.708 336.48 201.7 337.024 200.436 337.024C199.188 337.024 198.18 336.472 197.412 335.368C196.644 334.248 196.26 333.008 196.26 331.648C196.26 329.904 196.612 328.512 197.316 327.472C198.068 326.368 199.18 325.816 200.652 325.816ZM200.364 327.784C199.692 327.784 199.14 328.136 198.708 328.84C198.276 329.544 198.06 330.288 198.06 331.072C198.06 332.288 198.3 333.216 198.78 333.856C199.26 334.496 199.804 334.816 200.412 334.816C201.5 334.816 202.196 334.344 202.5 333.4C202.628 332.952 202.692 332.392 202.692 331.72C202.692 329.096 201.916 327.784 200.364 327.784ZM206.996 336.256L206.732 326.512C206.732 326.208 206.836 325.96 207.044 325.768C207.252 325.576 207.46 325.48 207.668 325.48C208.18 325.48 208.476 325.696 208.556 326.128C208.62 326.56 208.652 327.008 208.652 327.472C209.516 326.336 210.596 325.768 211.892 325.768C213.876 325.768 214.868 328.032 214.868 332.56C214.868 332.976 214.868 333.608 214.868 334.456C214.868 335.288 214.82 335.896 214.724 336.28C214.612 336.76 214.268 337 213.692 337C213.308 337 213.116 336.744 213.116 336.232L213.14 334.888C213.14 333.032 213.076 331.768 212.948 331.096C212.836 330.408 212.724 329.864 212.612 329.464C212.34 328.6 211.9 328.168 211.292 328.168C210.492 328.168 209.932 328.456 209.612 329.032C209.26 329.656 209.052 330.392 208.988 331.24C208.876 332.728 208.82 334.304 208.82 335.968C208.82 336.288 208.7 336.544 208.46 336.736C208.22 336.928 207.932 337.024 207.596 337.024C207.196 337.024 206.996 336.768 206.996 336.256Z" fill="#18191F"/>
<path d="M344.107 335.872C344.107 336.656 343.683 337.048 342.835 337.048C342.659 337.048 342.499 336.976 342.355 336.832C342.227 336.672 342.163 336.432 342.163 336.112L342.091 330.016C342.091 328 342.115 326.104 342.163 324.328C341.619 324.808 341.091 325.36 340.579 325.984C340.067 326.608 339.715 327.024 339.523 327.232C339.347 327.44 339.107 327.648 338.803 327.856C338.515 328.048 338.243 328.144 337.987 328.144C337.731 328.144 337.523 328.056 337.363 327.88C337.219 327.704 337.147 327.488 337.147 327.232C337.147 326.976 337.331 326.632 337.699 326.2C338.083 325.752 339.475 324.256 341.875 321.712C342.243 321.376 342.707 321.208 343.267 321.208C343.539 321.208 343.763 321.288 343.939 321.448C344.115 321.608 344.203 321.792 344.203 322L344.035 328.456L344.107 335.872ZM345.986 329.416C345.986 327.272 346.37 325.384 347.138 323.752C347.522 322.92 348.042 322.264 348.698 321.784C349.354 321.304 350.106 321.064 350.954 321.064C352.202 321.064 353.218 321.88 354.002 323.512C354.802 325.128 355.202 327.056 355.202 329.296C355.202 331.52 354.834 333.368 354.098 334.84C353.362 336.296 352.322 337.024 350.978 337.024C347.65 337.024 345.986 334.488 345.986 329.416ZM350.738 334.816C351.314 334.816 351.794 334.52 352.178 333.928C352.578 333.32 352.85 332.648 352.994 331.912C353.138 331.16 353.21 330.192 353.21 329.008C353.21 327.808 353.05 326.536 352.73 325.192C352.57 324.456 352.322 323.872 351.986 323.44C351.666 322.992 351.274 322.768 350.81 322.768C350.186 322.768 349.65 323.144 349.202 323.896C348.402 325.256 348.002 327.064 348.002 329.32C348.002 330.792 348.274 332.08 348.818 333.184C349.378 334.272 350.018 334.816 350.738 334.816Z" fill="#18191F"/>
<path d="M346.5 38.2499C348.677 38.25 350.77 39.0911 352.347 40.5995C352.466 40.716 352.656 40.7145 352.773 40.5962L353.908 39.4436C353.967 39.3836 354 39.3024 354 39.2178C354 39.1333 353.966 39.0524 353.906 38.9931C349.766 35.0023 343.234 35.0023 339.095 38.9931C339.035 39.0524 339.001 39.1332 339 39.2178C338.999 39.3023 339.032 39.3836 339.092 39.4436L340.227 40.5962C340.344 40.7147 340.534 40.7161 340.653 40.5995C342.23 39.091 344.324 38.2499 346.5 38.2499ZM346.5 41.9998C347.696 41.9997 348.849 42.4468 349.736 43.2541C349.856 43.3687 350.044 43.3662 350.161 43.2485L351.295 42.0959C351.355 42.0355 351.388 41.9534 351.387 41.8682C351.386 41.783 351.352 41.7017 351.291 41.6425C348.592 39.1169 344.412 39.1169 341.712 41.6425C341.651 41.7017 341.617 41.783 341.616 41.8683C341.615 41.9535 341.648 42.0355 341.708 42.0959L342.842 43.2485C342.959 43.3662 343.148 43.3687 343.267 43.2541C344.153 42.4473 345.305 42.0003 346.5 41.9998ZM348.68 44.7505C348.74 44.6906 348.774 44.6082 348.772 44.5228C348.77 44.4373 348.734 44.3564 348.671 44.299C347.418 43.2332 345.583 43.2332 344.33 44.299C344.267 44.3563 344.23 44.4372 344.229 44.5227C344.227 44.6082 344.26 44.6906 344.321 44.7505L346.283 46.7419C346.34 46.8004 346.419 46.8333 346.5 46.8333C346.582 46.8333 346.661 46.8004 346.718 46.7419L348.68 44.7505Z" fill="#2F2F2F"/>
<path d="M360.735 38.8916C360.735 38.2528 361.253 37.7349 361.892 37.7349H377.795C378.434 37.7349 378.952 38.2528 378.952 38.8916V44.3855C378.952 45.0243 378.434 45.5422 377.795 45.5422H361.892C361.253 45.5422 360.735 45.0243 360.735 44.3855V38.8916Z" fill="#2F2F2F"/>
<path opacity="0.4" fill-rule="evenodd" clip-rule="evenodd" d="M361.892 36.8675H377.795C378.913 36.8675 379.819 37.7737 379.819 38.8916V44.3855C379.819 45.5034 378.913 46.4096 377.795 46.4096H361.892C360.774 46.4096 359.867 45.5034 359.867 44.3855V38.8916C359.867 37.7737 360.774 36.8675 361.892 36.8675ZM359 38.8916C359 37.2946 360.295 36 361.892 36H377.795C379.392 36 380.687 37.2946 380.687 38.8916V44.3855C380.687 45.9825 379.392 47.2771 377.795 47.2771H361.892C360.295 47.2771 359 45.9825 359 44.3855V38.8916ZM383 41.6386C383 42.5273 382.383 43.272 381.554 43.4678V39.8093C382.383 40.0051 383 40.7498 383 41.6386Z" fill="#2F2F2F"/>
<path fill-rule="evenodd" clip-rule="evenodd" d="M331.909 37C331.357 37 330.909 37.4477 330.909 38V46.3031C330.909 46.8553 331.357 47.3031 331.909 47.3031H333C333.552 47.3031 334 46.8553 334 46.3031V38C334 37.4477 333.552 37 333 37H331.909ZM326.273 40.0606C326.273 39.5083 326.72 39.0606 327.273 39.0606H328.364C328.916 39.0606 329.364 39.5083 329.364 40.0606V46.303C329.364 46.8553 328.916 47.303 328.364 47.303H327.273C326.72 47.303 326.273 46.8553 326.273 46.303V40.0606ZM322.636 41.1212C322.084 41.1212 321.636 41.569 321.636 42.1212V46.3031C321.636 46.8554 322.084 47.3031 322.636 47.3031H323.727C324.28 47.3031 324.727 46.8554 324.727 46.3031V42.1212C324.727 41.569 324.28 41.1212 323.727 41.1212H322.636ZM318.03 47.3031C317.461 47.3031 317 46.8418 317 46.2728V43.697C317 43.128 317.461 42.6667 318.03 42.6667H319.061C319.63 42.6667 320.091 43.128 320.091 43.697V46.2728C320.091 46.8418 319.63 47.3031 319.061 47.3031H318.03Z" fill="#2F2F2F"/>
<path d="M51.672 35.751L47.5499 45H46.21L50.3184 36.0723H44.9386V35.0469H51.672V35.751ZM52.9095 44.3369C52.9095 44.1227 52.9756 43.9427 53.1078 43.7969C53.2445 43.6465 53.4405 43.5713 53.6957 43.5713C53.9554 43.5713 54.1514 43.6465 54.2836 43.7969C54.4203 43.9427 54.4886 44.1227 54.4886 44.3369C54.4886 44.5465 54.4203 44.722 54.2836 44.8633C54.1514 45.0046 53.9554 45.0752 53.6957 45.0752C53.4405 45.0752 53.2445 45.0046 53.1078 44.8633C52.9756 44.722 52.9095 44.5465 52.9095 44.3369ZM52.9164 38.2939C52.9164 38.0798 52.9824 37.8997 53.1146 37.7539C53.2513 37.6035 53.4473 37.5283 53.7025 37.5283C53.9623 37.5283 54.1582 37.6035 54.2904 37.7539C54.4271 37.8997 54.4955 38.0798 54.4955 38.2939C54.4955 38.5036 54.4271 38.679 54.2904 38.8203C54.1582 38.9616 53.9623 39.0322 53.7025 39.0322C53.4473 39.0322 53.2513 38.9616 53.1146 38.8203C52.9824 38.679 52.9164 38.5036 52.9164 38.2939ZM62.1998 40.7549C62.1998 41.835 62.0722 42.6963 61.817 43.3389C61.5664 43.9769 61.2064 44.4372 60.737 44.7197C60.2676 44.9977 59.7116 45.1367 59.069 45.1367C58.4355 45.1367 57.8818 44.9977 57.4079 44.7197C56.9339 44.4372 56.5648 43.9769 56.3004 43.3389C56.0407 42.6963 55.9108 41.835 55.9108 40.7549V39.2305C55.9108 38.1458 56.0384 37.2891 56.2936 36.6602C56.5534 36.0312 56.9179 35.5824 57.3873 35.3135C57.8613 35.0446 58.4173 34.9102 59.0553 34.9102C59.6979 34.9102 60.2539 35.0446 60.7233 35.3135C61.1927 35.5824 61.555 36.0312 61.8102 36.6602C62.07 37.2891 62.1998 38.1458 62.1998 39.2305V40.7549ZM60.9215 39.0186C60.9215 38.2712 60.8509 37.6719 60.7096 37.2207C60.5683 36.7695 60.3587 36.4437 60.0807 36.2432C59.8027 36.0381 59.4609 35.9355 59.0553 35.9355C58.6543 35.9355 58.3148 36.0381 58.0368 36.2432C57.7588 36.4437 57.5468 36.7695 57.401 37.2207C57.2597 37.6719 57.1891 38.2712 57.1891 39.0186V40.9531C57.1891 41.696 57.262 42.2998 57.4079 42.7646C57.5537 43.2295 57.7656 43.5713 58.0436 43.79C58.3261 44.0042 58.6679 44.1113 59.069 44.1113C59.4791 44.1113 59.8209 44.0042 60.0944 43.79C60.3678 43.5713 60.5729 43.2295 60.7096 42.7646C60.8509 42.2998 60.9215 41.696 60.9215 40.9531V39.0186ZM70.0751 45H63.5468V44.0977L66.8075 40.4678C67.2131 40.0212 67.5253 39.6429 67.7441 39.333C67.9674 39.0186 68.1223 38.736 68.2089 38.4854C68.2955 38.2347 68.3388 37.9795 68.3388 37.7197C68.3388 37.2275 68.1884 36.8083 67.8876 36.4619C67.5914 36.111 67.1676 35.9355 66.6161 35.9355C66.1695 35.9355 65.7981 36.0221 65.5019 36.1953C65.2102 36.3685 64.9915 36.6077 64.8456 36.9131C64.7043 37.2184 64.6337 37.5716 64.6337 37.9727H63.3554C63.3554 37.4121 63.4784 36.8994 63.7245 36.4346C63.9706 35.9697 64.3352 35.6006 64.8183 35.3271C65.3059 35.0492 65.9052 34.9102 66.6161 34.9102C67.5549 34.9102 68.2887 35.154 68.8173 35.6416C69.3505 36.1292 69.6171 36.7718 69.6171 37.5693C69.6171 37.9613 69.5328 38.3555 69.3642 38.752C69.1956 39.1484 68.97 39.5426 68.6874 39.9346C68.4049 40.3219 68.0927 40.7002 67.7509 41.0693L65.0849 43.9746H70.0751V45Z" fill="#2F2F2F"/>
<path d="M132.768 20H287.184V35C287.184 44.3888 279.572 52 270.184 52H149.768C140.379 52 132.768 44.3888 132.768 35V20Z" fill="#232020"/>
<path fill-rule="evenodd" clip-rule="evenodd" d="M133 20H128V20C128 20 128 20 128 20C130.651 20 132.799 22.1487 132.799 24.7993C132.799 24.8666 132.798 24.9335 132.795 25H133V20Z" fill="#232020"/>
<path fill-rule="evenodd" clip-rule="evenodd" d="M287 20H292V20C292 20 292 20 292 20C289.349 20 287.201 22.1487 287.201 24.7993C287.201 24.8666 287.202 24.9335 287.205 25H287V20Z" fill="#232020"/>
<circle cx="155" cy="34" r="8" fill="#0F0E0E"/>
<path d="M216.5 74.5833C211.894 74.5918 207.389 75.8926 203.535 78.3273C199.682 80.7621 196.645 84.2256 194.795 88.2961C192.945 92.3667 192.361 96.8685 193.116 101.253C193.87 105.638 195.93 109.716 199.044 112.992V112.992C201.268 115.318 203.967 117.174 206.971 118.444C209.976 119.714 213.22 120.369 216.5 120.369C219.78 120.369 223.024 119.714 226.029 118.444C229.033 117.174 231.732 115.318 233.956 112.992V112.992C237.07 109.716 239.13 105.638 239.884 101.253C240.639 96.8685 240.055 92.3667 238.205 88.2961C236.355 84.2256 233.318 80.7621 229.465 78.3273C225.611 75.8926 221.106 74.5918 216.5 74.5833V74.5833ZM216.5 115.833C211.58 115.826 206.855 113.978 203.319 110.677C204.392 108.155 206.219 105.998 208.566 104.48C210.913 102.962 213.674 102.152 216.5 102.152C219.326 102.152 222.087 102.962 224.434 104.48C226.781 105.998 228.608 108.155 229.681 110.677C226.145 113.978 221.42 115.826 216.5 115.833ZM211.75 92.9167C211.75 92.0102 212.029 91.124 212.551 90.3703C213.072 89.6166 213.814 89.0291 214.682 88.6822C215.55 88.3353 216.505 88.2446 217.427 88.4214C218.348 88.5983 219.194 89.0348 219.859 89.6758C220.523 90.3168 220.975 91.1334 221.159 92.0225C221.342 92.9116 221.248 93.8331 220.888 94.6706C220.529 95.5081 219.92 96.224 219.139 96.7276C218.358 97.2312 217.439 97.5 216.5 97.5C215.24 97.5 214.032 97.0171 213.141 96.1576C212.25 95.298 211.75 94.1323 211.75 92.9167ZM232.911 106.667C230.789 103.164 227.523 100.44 223.625 98.9208C224.834 97.5978 225.622 95.9661 225.894 94.2216C226.166 92.4772 225.911 90.694 225.159 89.0861C224.406 87.4783 223.189 86.114 221.654 85.157C220.118 84.2 218.328 83.691 216.5 83.691C214.672 83.691 212.882 84.2 211.346 85.157C209.811 86.114 208.594 87.4783 207.841 89.0861C207.089 90.694 206.834 92.4772 207.106 94.2216C207.378 95.9661 208.166 97.5978 209.375 98.9208C205.477 100.44 202.211 103.164 200.089 106.667C198.398 103.887 197.504 100.723 197.5 97.5C197.5 92.6377 199.502 87.9746 203.065 84.5364C206.628 81.0982 211.461 79.1667 216.5 79.1667C221.539 79.1667 226.372 81.0982 229.935 84.5364C233.498 87.9746 235.5 92.6377 235.5 97.5C235.496 100.723 234.602 103.887 232.911 106.667V106.667Z" fill="black"/>
<path d="M179.019 128.665C179.019 128.511 179.131 128.357 179.355 128.203C179.579 128.049 179.796 127.972 180.006 127.972C180.23 127.972 180.398 128.021 180.51 128.119C180.636 128.217 180.706 128.336 180.72 128.476C181.014 132.256 181.161 134.65 181.161 135.658C181.161 136.652 181.147 137.401 181.119 137.905C181.091 138.409 181.021 138.955 180.909 139.543C180.797 140.117 180.636 140.572 180.426 140.908C179.964 141.692 179.222 142.084 178.2 142.084C177.178 142.084 176.345 141.748 175.701 141.076C175.057 140.39 174.735 139.41 174.735 138.136C174.735 137.926 174.84 137.737 175.05 137.569C175.274 137.387 175.512 137.296 175.764 137.296C176.072 137.296 176.261 137.583 176.331 138.157C176.513 139.781 177.122 140.593 178.158 140.593C178.424 140.593 178.648 140.509 178.83 140.341C179.026 140.159 179.173 139.949 179.271 139.711C179.369 139.459 179.446 139.13 179.502 138.724C179.586 138.136 179.628 137.436 179.628 136.624C179.628 135.798 179.523 134.3 179.313 132.13C179.117 129.96 179.019 128.805 179.019 128.665ZM186.287 132.214C187.295 132.214 188.121 132.697 188.765 133.663C189.423 134.629 189.752 135.791 189.752 137.149C189.752 138.493 189.416 139.641 188.744 140.593C188.086 141.545 187.204 142.021 186.098 142.021C185.006 142.021 184.124 141.538 183.452 140.572C182.78 139.592 182.444 138.507 182.444 137.317C182.444 135.791 182.752 134.573 183.368 133.663C184.026 132.697 184.999 132.214 186.287 132.214ZM186.035 133.936C185.447 133.936 184.964 134.244 184.586 134.86C184.208 135.476 184.019 136.127 184.019 136.813C184.019 137.877 184.229 138.689 184.649 139.249C185.069 139.809 185.545 140.089 186.077 140.089C187.029 140.089 187.638 139.676 187.904 138.85C188.016 138.458 188.072 137.968 188.072 137.38C188.072 135.084 187.393 133.936 186.035 133.936ZM193.287 135.196L193.455 140.152C193.455 140.768 193.427 141.125 193.371 141.223C193.343 141.475 193.259 141.671 193.119 141.811C192.993 141.951 192.741 142.021 192.363 142.021C192.181 142.021 192.034 141.909 191.922 141.685C191.81 141.447 191.747 141.181 191.733 140.887C191.635 138.423 191.502 136.113 191.334 133.957C191.18 131.787 191.103 129.771 191.103 127.909C191.103 127.615 191.201 127.384 191.397 127.216C191.593 127.048 191.824 126.964 192.09 126.964C192.482 126.964 192.713 127.3 192.783 127.972C192.867 128.644 192.916 129.484 192.93 130.492C192.958 131.5 192.986 132.235 193.014 132.697C193.714 132.333 194.414 132.151 195.114 132.151C196.738 132.151 197.767 132.865 198.201 134.293C198.453 135.105 198.579 136.148 198.579 137.422C198.579 137.842 198.537 138.507 198.453 139.417C198.383 140.313 198.341 140.894 198.327 141.16C198.313 141.426 198.194 141.636 197.97 141.79C197.76 141.93 197.529 142 197.277 142C196.885 142 196.689 141.79 196.689 141.37L196.836 137.716C196.836 137.408 196.822 136.897 196.794 136.183C196.766 135.469 196.619 134.902 196.353 134.482C196.101 134.062 195.653 133.852 195.009 133.852C193.861 133.852 193.287 134.3 193.287 135.196ZM200.657 141.349L200.426 132.823C200.426 132.557 200.517 132.34 200.699 132.172C200.881 132.004 201.063 131.92 201.245 131.92C201.693 131.92 201.952 132.109 202.022 132.487C202.078 132.865 202.106 133.257 202.106 133.663C202.862 132.669 203.807 132.172 204.941 132.172C206.677 132.172 207.545 134.153 207.545 138.115C207.545 138.479 207.545 139.032 207.545 139.774C207.545 140.502 207.503 141.034 207.419 141.37C207.321 141.79 207.02 142 206.516 142C206.18 142 206.012 141.776 206.012 141.328L206.033 140.152C206.033 138.528 205.977 137.422 205.865 136.834C205.767 136.232 205.669 135.756 205.571 135.406C205.333 134.65 204.948 134.272 204.416 134.272C203.716 134.272 203.226 134.524 202.946 135.028C202.638 135.574 202.456 136.218 202.4 136.96C202.302 138.262 202.253 139.641 202.253 141.097C202.253 141.377 202.148 141.601 201.938 141.769C201.728 141.937 201.476 142.021 201.182 142.021C200.832 142.021 200.657 141.797 200.657 141.349ZM218.982 128.098C219.892 128.098 220.662 128.252 221.292 128.56C221.936 128.868 222.258 129.26 222.258 129.736C222.258 129.946 222.202 130.128 222.09 130.282C221.992 130.436 221.838 130.513 221.628 130.513C221.432 130.513 220.998 130.359 220.326 130.051C219.654 129.729 219.038 129.568 218.478 129.568C217.932 129.568 217.365 129.743 216.777 130.093C216.189 130.443 215.895 130.87 215.895 131.374C215.895 132.06 216.252 132.564 216.966 132.886C217.498 133.124 218.261 133.341 219.255 133.537C220.249 133.719 221.061 134.104 221.691 134.692C222.321 135.266 222.636 136.141 222.636 137.317C222.636 139.109 222.097 140.432 221.019 141.286C220.417 141.762 219.563 142 218.457 142C217.365 142 216.273 141.699 215.181 141.097C214.467 140.719 214.11 140.341 214.11 139.963C214.11 139.823 214.166 139.669 214.278 139.501C214.404 139.333 214.572 139.193 214.782 139.081C214.992 138.969 215.181 138.955 215.349 139.039C215.531 139.109 215.818 139.242 216.21 139.438C216.602 139.634 216.889 139.767 217.071 139.837C217.659 140.061 218.212 140.173 218.73 140.173C219.248 140.173 219.745 139.921 220.221 139.417C220.711 138.899 220.956 138.269 220.956 137.527C220.956 136.547 220.466 135.861 219.486 135.469C219.01 135.273 218.471 135.126 217.869 135.028C216.623 134.804 215.685 134.433 215.055 133.915C214.425 133.383 214.11 132.585 214.11 131.521C214.11 130.457 214.565 129.624 215.475 129.022C216.385 128.406 217.554 128.098 218.982 128.098ZM225.029 142.021C224.665 142.021 224.448 141.818 224.378 141.412C224.378 138.584 224.21 136.064 223.874 133.852C223.874 133.572 223.972 133.32 224.168 133.096C224.378 132.872 224.609 132.76 224.861 132.76C225.127 132.76 225.323 132.907 225.449 133.201C225.967 132.515 226.66 132.172 227.528 132.172C228.634 132.172 229.488 132.704 230.09 133.768C230.79 132.76 231.714 132.256 232.862 132.256C234.024 132.256 234.892 132.718 235.466 133.642C235.844 134.216 236.11 134.972 236.264 135.91C236.418 136.848 236.495 138.178 236.495 139.9C236.495 140.572 236.425 141.097 236.285 141.475C236.145 141.839 235.851 142.021 235.403 142.021C235.039 142.021 234.857 141.79 234.857 141.328L234.92 138.703C234.92 135.553 234.101 133.978 232.463 133.978C231.945 133.978 231.581 134.16 231.371 134.524C231.133 134.958 230.993 135.413 230.951 135.889C230.895 136.729 230.867 137.492 230.867 138.178V141.223C230.867 141.447 230.755 141.636 230.531 141.79C230.307 141.944 230.076 142.021 229.838 142.021C229.53 142.021 229.334 141.818 229.25 141.412L229.313 137.065C229.313 135.525 229.054 134.566 228.536 134.188C228.284 134.006 227.899 133.915 227.381 133.915C226.877 133.915 226.499 134.104 226.247 134.482C226.009 134.86 225.89 135.469 225.89 136.309L226.016 140.215C226.016 141.419 225.687 142.021 225.029 142.021ZM239.492 128.728C239.744 128.728 239.982 128.847 240.206 129.085C240.43 129.323 240.542 129.575 240.542 129.841C240.542 130.093 240.416 130.352 240.164 130.618C239.926 130.884 239.674 131.017 239.408 131.017C239.142 131.017 238.897 130.905 238.673 130.681C238.463 130.457 238.358 130.17 238.358 129.82C238.358 129.148 238.722 128.784 239.45 128.728C239.464 128.728 239.478 128.728 239.492 128.728ZM240.374 139.732L240.395 141.202C240.395 141.468 240.29 141.692 240.08 141.874C239.87 142.042 239.646 142.126 239.408 142.126C239.058 142.126 238.876 141.951 238.862 141.601C238.68 137.135 238.589 134.664 238.589 134.188C238.589 133.712 238.61 133.131 238.652 132.445C238.68 132.193 238.841 132.067 239.135 132.067C239.877 132.067 240.297 132.368 240.395 132.97C240.437 133.278 240.458 133.523 240.458 133.705L240.374 135.028V139.732ZM243.327 132.193L244.377 132.214C244.615 132.214 244.748 132.207 244.776 132.193V127.888C244.79 127.65 244.909 127.447 245.133 127.279C245.357 127.111 245.567 127.027 245.763 127.027C245.959 127.027 246.113 127.09 246.225 127.216C246.351 127.342 246.407 127.538 246.393 127.804C246.379 128.07 246.372 129.526 246.372 132.172L248.829 132.088C249.249 132.088 249.459 132.333 249.459 132.823C249.459 133.187 249.347 133.46 249.123 133.642C248.913 133.824 248.682 133.922 248.43 133.936C248.192 133.95 247.954 133.957 247.716 133.957L246.435 133.936C246.435 134.51 246.491 135.644 246.603 137.338C246.729 139.032 246.827 140.131 246.897 140.635C246.967 141.125 246.981 141.447 246.939 141.601C246.897 141.741 246.82 141.839 246.708 141.895C246.526 141.979 246.281 142.021 245.973 142.021C245.665 142.021 245.483 141.853 245.427 141.517C245.147 139.683 244.958 137.163 244.86 133.957C244.734 133.971 244.251 133.978 243.411 133.978C242.571 133.978 242.151 133.733 242.151 133.243C242.151 132.543 242.543 132.193 243.327 132.193ZM252.268 135.196L252.436 140.152C252.436 140.768 252.408 141.125 252.352 141.223C252.324 141.475 252.24 141.671 252.1 141.811C251.974 141.951 251.722 142.021 251.344 142.021C251.162 142.021 251.015 141.909 250.903 141.685C250.791 141.447 250.728 141.181 250.714 140.887C250.616 138.423 250.483 136.113 250.315 133.957C250.161 131.787 250.084 129.771 250.084 127.909C250.084 127.615 250.182 127.384 250.378 127.216C250.574 127.048 250.805 126.964 251.071 126.964C251.463 126.964 251.694 127.3 251.764 127.972C251.848 128.644 251.897 129.484 251.911 130.492C251.939 131.5 251.967 132.235 251.995 132.697C252.695 132.333 253.395 132.151 254.095 132.151C255.719 132.151 256.748 132.865 257.182 134.293C257.434 135.105 257.56 136.148 257.56 137.422C257.56 137.842 257.518 138.507 257.434 139.417C257.364 140.313 257.322 140.894 257.308 141.16C257.294 141.426 257.175 141.636 256.951 141.79C256.741 141.93 256.51 142 256.258 142C255.866 142 255.67 141.79 255.67 141.37L255.817 137.716C255.817 137.408 255.803 136.897 255.775 136.183C255.747 135.469 255.6 134.902 255.334 134.482C255.082 134.062 254.634 133.852 253.99 133.852C252.842 133.852 252.268 134.3 252.268 135.196Z" fill="#18191F"/>
</g>
<defs>
<filter id="filter0_d_1875_3301" x="43" y="706" width="327" height="75" filterUnits="userSpaceOnUse" color-interpolation-filters="sRGB">
<feFlood flood-opacity="0" result="BackgroundImageFix"/>
<feColorMatrix in="SourceAlpha" type="matrix" values="0 0 0 0 0 0 0 0 0 0 0 0 0 0 0 0 0 0 127 0" result="hardAlpha"/>
<feOffset dy="4"/>
<feColorMatrix type="matrix" values="0 0 0 0 0.0941176 0 0 0 0 0.0980392 0 0 0 0 0.121569 0 0 0 1 0"/>
<feBlend mode="normal" in2="BackgroundImageFix" result="effect1_dropShadow_1875_3301"/>
<feBlend mode="normal" in="SourceGraphic" in2="effect1_dropShadow_1875_3301" result="shape"/>
</filter>
<filter id="filter1_dd_1875_3301" x="-6.09036" y="358.94" width="431.181" height="383.181" filterUnits="userSpaceOnUse" color-interpolation-filters="sRGB">
<feFlood flood-opacity="0" result="BackgroundImageFix"/>
<feColorMatrix in="SourceAlpha" type="matrix" values="0 0 0 0 0 0 0 0 0 0 0 0 0 0 0 0 0 0 127 0" result="hardAlpha"/>
<feOffset dy="3.38629"/>
<feGaussianBlur stdDeviation="2.82191"/>
<feColorMatrix type="matrix" values="0 0 0 0 0.690196 0 0 0 0 0.745098 0 0 0 0 0.772549 0 0 0 0.32 0"/>
<feBlend mode="multiply" in2="BackgroundImageFix" result="effect1_dropShadow_1875_3301"/>
<feColorMatrix in="SourceAlpha" type="matrix" values="0 0 0 0 0 0 0 0 0 0 0 0 0 0 0 0 0 0 127 0" result="hardAlpha"/>
<feOffset dy="9.03012"/>
<feGaussianBlur stdDeviation="13.5452"/>
<feColorMatrix type="matrix" values="0 0 0 0 0.690196 0 0 0 0 0.745098 0 0 0 0 0.772549 0 0 0 0.32 0"/>
<feBlend mode="multiply" in2="effect1_dropShadow_1875_3301" result="effect2_dropShadow_1875_3301"/>
<feBlend mode="normal" in="SourceGraphic" in2="effect2_dropShadow_1875_3301" result="shape"/>
</filter>
<linearGradient id="paint0_linear_1875_3301" x1="210.5" y1="0" x2="210.5" y2="852" gradientUnits="userSpaceOnUse">
<stop stop-color="#343D47"/>
<stop offset="1" stop-color="#4E6277"/>
</linearGradient>
<radialGradient id="paint1_radial_1875_3301" cx="0" cy="0" r="1" gradientUnits="userSpaceOnUse" gradientTransform="translate(51.9523 524.145) rotate(-1.53529) scale(304.019 284.967)">
<stop offset="1" stop-color="#F38704"/>
</radialGradient>
<clipPath id="clip0_1875_3301">
<rect x="23" y="20" width="375" height="812" rx="50" fill="white"/>
</clipPath>
</defs>
</svg>
