<svg width="421" height="852" viewBox="0 0 421 852" fill="none" xmlns="http://www.w3.org/2000/svg">
<path d="M0 207C0 205.343 1.34315 204 3 204H6V226H3C1.34315 226 0 224.657 0 223V207Z" fill="#37424D"/>
<path d="M0 339C0 337.343 1.34315 336 3 336H6V408H3C1.34315 408 0 406.657 0 405V339Z" fill="#37424D"/>
<path d="M421 284C421 282.343 419.657 281 418 281H415V399H418C419.657 399 421 397.657 421 396V284Z" fill="#37424D"/>
<path d="M0 253C0 251.343 1.34315 250 3 250H6V322H3C1.34315 322 0 320.657 0 319V253Z" fill="#37424D"/>
<rect x="3" width="415" height="852" rx="65" fill="url(#paint0_linear_1875_3299)"/>
<rect x="9" y="6" width="403" height="840" rx="60" fill="#232020"/>
<rect opacity="0.15" x="3" y="119" width="6" height="15" fill="#A7A7A7"/>
<rect opacity="0.15" x="3" y="714" width="6" height="15" fill="#A7A7A7"/>
<rect opacity="0.15" x="412" y="119" width="6" height="15" fill="#A7A7A7"/>
<rect opacity="0.3" x="412" y="714" width="6" height="15" fill="#A7A7A7"/>
<rect opacity="0.15" x="316" y="6" width="6" height="15" transform="rotate(-90 316 6)" fill="#A7A7A7"/>
<rect opacity="0.15" x="96" y="852" width="6" height="15" transform="rotate(-90 96 852)" fill="#A7A7A7"/>
<rect x="183" y="10" width="55" height="8" rx="4" fill="#0F0E0E"/>
<g clip-path="url(#clip0_1875_3299)">
<rect x="23" y="20" width="375" height="812" rx="50" fill="white"/>
<rect x="144" y="820" width="134" height="5" rx="2.5" fill="black"/>
<path d="M212.5 128.583C207.894 128.592 203.389 129.893 199.535 132.327C195.682 134.762 192.645 138.226 190.795 142.296C188.945 146.367 188.361 150.868 189.116 155.253C189.87 159.638 191.93 163.716 195.044 166.992V166.992C197.268 169.318 199.967 171.174 202.971 172.444C205.976 173.714 209.22 174.369 212.5 174.369C215.78 174.369 219.024 173.714 222.029 172.444C225.033 171.174 227.732 169.318 229.956 166.992V166.992C233.07 163.716 235.13 159.638 235.884 155.253C236.639 150.868 236.055 146.367 234.205 142.296C232.355 138.226 229.318 134.762 225.465 132.327C221.611 129.893 217.106 128.592 212.5 128.583V128.583ZM212.5 169.833C207.58 169.826 202.855 167.978 199.319 164.677C200.392 162.155 202.219 159.998 204.566 158.48C206.913 156.962 209.674 156.152 212.5 156.152C215.326 156.152 218.087 156.962 220.434 158.48C222.781 159.998 224.608 162.155 225.681 164.677C222.145 167.978 217.42 169.826 212.5 169.833ZM207.75 146.917C207.75 146.01 208.029 145.124 208.551 144.37C209.072 143.617 209.814 143.029 210.682 142.682C211.55 142.335 212.505 142.245 213.427 142.421C214.348 142.598 215.194 143.035 215.859 143.676C216.523 144.317 216.975 145.133 217.159 146.023C217.342 146.912 217.248 147.833 216.888 148.671C216.529 149.508 215.92 150.224 215.139 150.728C214.358 151.231 213.439 151.5 212.5 151.5C211.24 151.5 210.032 151.017 209.141 150.158C208.25 149.298 207.75 148.132 207.75 146.917ZM228.911 160.667C226.789 157.164 223.523 154.44 219.625 152.921C220.834 151.598 221.622 149.966 221.894 148.222C222.166 146.477 221.911 144.694 221.159 143.086C220.406 141.478 219.189 140.114 217.654 139.157C216.118 138.2 214.328 137.691 212.5 137.691C210.672 137.691 208.882 138.2 207.346 139.157C205.811 140.114 204.594 141.478 203.841 143.086C203.089 144.694 202.834 146.477 203.106 148.222C203.378 149.966 204.166 151.598 205.375 152.921C201.477 154.44 198.211 157.164 196.089 160.667C194.398 157.887 193.504 154.723 193.5 151.5C193.5 146.638 195.502 141.975 199.065 138.536C202.628 135.098 207.461 133.167 212.5 133.167C217.539 133.167 222.372 135.098 225.935 138.536C229.498 141.975 231.5 146.638 231.5 151.5C231.496 154.723 230.602 157.887 228.911 160.667V160.667Z" fill="black"/>
<path d="M167.296 280.328L167.344 276.584L167.776 256.52C167.776 256.136 167.984 255.832 168.4 255.608C168.816 255.384 169.344 255.272 169.984 255.272C171.52 255.272 172.288 255.816 172.288 256.904C172.288 257.256 172.096 259.944 171.712 264.968C171.36 269.992 171.184 273 171.184 273.992C171.184 273.992 171.184 275.688 171.184 279.08C171.184 281.48 171.344 282.792 171.664 283.016C172.144 283.176 172.704 283.256 173.344 283.256L180.256 282.776C181.76 282.776 182.512 283.32 182.512 284.408C182.512 285.272 182.096 285.912 181.264 286.328C180.464 286.712 179.664 286.936 178.864 287C178.064 287.032 177.088 287.048 175.936 287.048C170.912 287.048 168.192 286.888 167.776 286.568C167.552 286.376 167.424 285.656 167.392 284.408C167.36 283.128 167.328 282.232 167.296 281.72C167.296 281.208 167.296 280.744 167.296 280.328ZM192.595 264.776C194.291 264.776 195.907 265.272 197.443 266.264C198.979 267.256 199.747 268.488 199.747 269.96C199.747 271.4 199.123 272.808 197.875 274.184C196.627 275.528 194.963 276.344 192.883 276.632C191.987 276.76 190.643 276.824 188.851 276.824C189.203 279.544 189.891 281.336 190.915 282.2C191.235 282.552 191.667 282.728 192.211 282.728C194.195 282.728 195.859 282.104 197.203 280.856C198.547 279.576 199.507 278.936 200.083 278.936C200.339 278.936 200.723 279.176 201.235 279.656C201.747 280.136 202.003 280.584 202.003 281C202.003 281.832 200.995 283.032 198.979 284.6C198.083 285.336 196.995 285.96 195.715 286.472C194.467 286.952 193.299 287.192 192.211 287.192C189.427 287.192 187.379 285.4 186.067 281.816C185.235 279.608 184.819 277.176 184.819 274.52C184.819 271.864 185.443 269.576 186.691 267.656C187.939 265.736 189.907 264.776 192.595 264.776ZM192.835 268.088C191.619 268.088 190.579 268.776 189.715 270.152C189.395 270.632 189.091 271.72 188.803 273.416C193.283 273.416 195.523 272.312 195.523 270.104C195.523 268.76 194.627 268.088 192.835 268.088ZM220.312 264.344C220.76 264.344 221.096 264.504 221.32 264.824C221.544 265.112 221.656 265.432 221.656 265.784L221.608 266.264C220.264 269.688 219.272 272.472 218.632 274.616C218.216 276.12 217.896 277.24 217.672 277.976C217.48 278.712 217.144 280.008 216.664 281.864C216.184 283.72 215.864 284.92 215.704 285.464C215.256 286.552 214.472 287.096 213.352 287.096C212.808 287.096 212.424 286.744 212.2 286.04C211.176 282.84 209.672 279.224 207.688 275.192C205.704 271.16 204.568 268.856 204.28 268.28C204.024 267.672 203.896 267.128 203.896 266.648C203.896 266.168 204.104 265.704 204.52 265.256C204.968 264.808 205.464 264.584 206.008 264.584C206.552 264.584 207.016 264.872 207.4 265.448C207.752 266.152 208.744 268.12 210.376 271.352C212.04 274.584 213.208 277.128 213.88 278.984C213.912 278.792 214.024 278.392 214.216 277.784C215.848 272.12 217.176 268.072 218.2 265.64C218.744 264.776 219.448 264.344 220.312 264.344ZM230.939 264.776C232.635 264.776 234.251 265.272 235.787 266.264C237.323 267.256 238.091 268.488 238.091 269.96C238.091 271.4 237.467 272.808 236.219 274.184C234.971 275.528 233.307 276.344 231.227 276.632C230.331 276.76 228.987 276.824 227.195 276.824C227.547 279.544 228.235 281.336 229.259 282.2C229.579 282.552 230.011 282.728 230.555 282.728C232.539 282.728 234.203 282.104 235.547 280.856C236.891 279.576 237.851 278.936 238.427 278.936C238.683 278.936 239.067 279.176 239.579 279.656C240.091 280.136 240.347 280.584 240.347 281C240.347 281.832 239.339 283.032 237.323 284.6C236.427 285.336 235.339 285.96 234.059 286.472C232.811 286.952 231.643 287.192 230.555 287.192C227.771 287.192 225.723 285.4 224.411 281.816C223.579 279.608 223.163 277.176 223.163 274.52C223.163 271.864 223.787 269.576 225.035 267.656C226.283 265.736 228.251 264.776 230.939 264.776ZM231.179 268.088C229.963 268.088 228.923 268.776 228.059 270.152C227.739 270.632 227.435 271.72 227.147 273.416C231.627 273.416 233.867 272.312 233.867 270.104C233.867 268.76 232.971 268.088 231.179 268.088ZM243.008 255.944C243.104 254.728 243.296 253.944 243.584 253.592C243.904 253.208 244.4 253.016 245.072 253.016C246.448 253.016 247.136 253.576 247.136 254.696C247.136 255.56 247.056 257.816 246.896 261.464C246.768 265.112 246.704 268.376 246.704 271.256C246.704 274.136 246.816 276.456 247.04 278.216C247.424 281.288 247.968 282.824 248.672 282.824C249.376 282.824 249.904 282.328 250.256 281.336C250.416 280.952 250.672 280.616 251.024 280.328C251.376 280.008 251.824 279.848 252.368 279.848C253.488 279.848 254.048 280.792 254.048 282.68C254.048 283.704 253.488 284.728 252.368 285.752C251.28 286.744 250.192 287.24 249.104 287.24C248.016 287.24 247.136 287.064 246.464 286.712C245.824 286.328 245.296 285.768 244.88 285.032C244.496 284.296 244.176 283.592 243.92 282.92C243.696 282.216 243.536 281.368 243.44 280.376C243.248 278.776 243.104 276.216 243.008 272.696C242.944 269.144 242.912 265.768 242.912 262.568C242.912 259.336 242.944 257.128 243.008 255.944Z" fill="#090909"/>
<g filter="url(#filter0_d_1875_3299)">
<rect x="47" y="623" width="327" height="71" rx="16" fill="#F2994A"/>
<path d="M184.445 662.328C184.277 659.856 184.193 656.52 184.193 652.32C184.193 648.096 184.253 645.36 184.373 644.112C184.493 643.344 185.021 642.84 185.957 642.6C186.893 642.336 188.129 642.204 189.665 642.204C191.921 642.204 193.817 642.696 195.353 643.68C196.913 644.64 197.693 646.068 197.693 647.964C197.693 649.524 197.477 650.832 197.045 651.888C196.613 652.92 196.073 653.688 195.425 654.192C194.369 655.008 192.809 655.416 190.745 655.416C189.857 655.416 188.693 655.296 187.253 655.056C187.373 659.856 187.421 662.88 187.397 664.128C187.373 665.376 186.953 666 186.137 666C185.609 666 185.273 665.904 185.129 665.712C184.985 665.52 184.889 665.388 184.841 665.316C184.793 665.22 184.745 665.088 184.697 664.92C184.649 664.752 184.613 664.62 184.589 664.524C184.565 664.404 184.541 664.236 184.517 664.02C184.517 663.804 184.505 663.636 184.481 663.516C184.457 663.156 184.445 662.76 184.445 662.328ZM194.705 648.072C194.705 647.088 194.177 646.32 193.121 645.768C192.065 645.192 190.937 644.904 189.737 644.904C188.537 644.904 187.697 645.012 187.217 645.228C187.121 646.644 187.073 647.952 187.073 649.152C187.073 650.328 187.121 651.396 187.217 652.356C187.865 652.428 188.309 652.488 188.549 652.536C189.173 652.608 189.701 652.644 190.133 652.644C190.589 652.644 190.889 652.644 191.033 652.644C191.201 652.62 191.501 652.584 191.933 652.536C192.389 652.464 192.713 652.356 192.905 652.212C193.097 652.068 193.337 651.876 193.625 651.636C193.913 651.396 194.117 651.12 194.237 650.808C194.549 649.944 194.705 649.032 194.705 648.072ZM200.985 642.708C201.057 641.796 201.201 641.208 201.417 640.944C201.657 640.656 202.029 640.512 202.533 640.512C203.565 640.512 204.081 640.932 204.081 641.772C204.081 642.42 204.021 644.112 203.901 646.848C203.805 649.584 203.757 652.032 203.757 654.192C203.757 656.352 203.841 658.092 204.009 659.412C204.297 661.716 204.705 662.868 205.233 662.868C205.761 662.868 206.157 662.496 206.421 661.752C206.541 661.464 206.733 661.212 206.997 660.996C207.261 660.756 207.597 660.636 208.005 660.636C208.845 660.636 209.265 661.344 209.265 662.76C209.265 663.528 208.845 664.296 208.005 665.064C207.189 665.808 206.373 666.18 205.557 666.18C204.741 666.18 204.081 666.048 203.577 665.784C203.097 665.496 202.701 665.076 202.389 664.524C202.101 663.972 201.861 663.444 201.669 662.94C201.501 662.412 201.381 661.776 201.309 661.032C201.165 659.832 201.057 657.912 200.985 655.272C200.937 652.608 200.913 650.076 200.913 647.676C200.913 645.252 200.937 643.596 200.985 642.708ZM220.699 649.188C221.755 649.188 222.283 650.088 222.283 651.888C222.283 652.08 222.283 652.284 222.283 652.5L222.211 655.02C222.187 655.812 222.175 656.592 222.175 657.36L222.715 665.496C222.715 666.096 222.103 666.396 220.879 666.396C220.807 666.396 220.627 666.396 220.339 666.396C220.075 666.396 219.883 666.288 219.763 666.072C219.667 665.856 219.655 665.592 219.727 665.28C219.823 664.968 219.799 664.62 219.655 664.236C218.551 665.412 217.087 666 215.263 666C211.879 666 210.187 663.384 210.187 658.152C210.187 655.248 210.727 653.052 211.807 651.564C212.911 650.076 214.483 649.332 216.523 649.332C217.483 649.332 218.443 649.5 219.403 649.836C219.715 649.404 220.147 649.188 220.699 649.188ZM216.955 652.464C215.587 652.464 214.567 652.86 213.895 653.652C213.223 654.444 212.887 655.896 212.887 658.008C212.887 661.56 213.847 663.336 215.767 663.336C216.271 663.336 216.823 663.108 217.423 662.652C218.047 662.196 218.479 661.68 218.719 661.104C219.175 659.808 219.403 658.392 219.403 656.856C219.403 655.32 219.211 654.204 218.827 653.508C218.467 652.812 217.843 652.464 216.955 652.464ZM236.237 649.368C236.549 649.368 236.849 649.476 237.137 649.692C237.449 649.908 237.605 650.148 237.605 650.412C237.605 651.108 236.585 654.876 234.545 661.716C232.505 668.556 230.993 673.356 230.009 676.116C229.793 676.764 229.457 677.088 229.001 677.088C228.545 677.088 228.185 676.92 227.921 676.584C227.657 676.272 227.525 675.804 227.525 675.18C227.525 674.556 227.921 673.056 228.713 670.68C229.529 668.328 230.021 666.828 230.189 666.18C229.589 665.172 227.561 660.132 224.105 651.06C224.057 650.94 224.033 650.784 224.033 650.592C224.033 650.4 224.177 650.148 224.465 649.836C224.753 649.524 225.149 649.368 225.653 649.368C226.157 649.368 226.565 649.62 226.877 650.124C227.213 650.988 227.765 652.5 228.533 654.66C229.301 656.796 229.889 658.344 230.297 659.304C230.729 660.264 231.137 661.26 231.521 662.292C231.857 661.164 232.433 658.98 233.249 655.74C234.065 652.476 234.533 650.616 234.653 650.16C234.749 649.632 235.277 649.368 236.237 649.368Z" fill="#333333"/>
<rect x="48" y="624" width="325" height="69" rx="15" stroke="#18191F" stroke-width="2"/>
</g>
<g filter="url(#filter1_d_1875_3299)">
<path d="M60 338C60 333.582 63.5817 330 68 330H353C357.418 330 361 333.582 361 338V374C361 378.418 357.418 382 353 382H68C63.5817 382 60 378.418 60 374V338Z" fill="#333333"/>
<path d="M184.378 360.942L184.4 359.226L184.598 350.03C184.598 349.854 184.694 349.715 184.884 349.612C185.075 349.509 185.317 349.458 185.61 349.458C186.314 349.458 186.666 349.707 186.666 350.206C186.666 350.367 186.578 351.599 186.402 353.902C186.241 356.205 186.16 357.583 186.16 358.038C186.16 358.038 186.16 358.815 186.16 360.37C186.16 361.47 186.234 362.071 186.38 362.174C186.6 362.247 186.857 362.284 187.15 362.284L190.318 362.064C191.008 362.064 191.352 362.313 191.352 362.812C191.352 363.208 191.162 363.501 190.78 363.692C190.414 363.868 190.047 363.971 189.68 364C189.314 364.015 188.866 364.022 188.338 364.022C186.036 364.022 184.789 363.949 184.598 363.802C184.496 363.714 184.437 363.384 184.422 362.812C184.408 362.225 184.393 361.815 184.378 361.58C184.378 361.345 184.378 361.133 184.378 360.942ZM195.974 353.814C196.751 353.814 197.492 354.041 198.196 354.496C198.9 354.951 199.252 355.515 199.252 356.19C199.252 356.85 198.966 357.495 198.394 358.126C197.822 358.742 197.059 359.116 196.106 359.248C195.695 359.307 195.079 359.336 194.258 359.336C194.419 360.583 194.734 361.404 195.204 361.8C195.35 361.961 195.548 362.042 195.798 362.042C196.707 362.042 197.47 361.756 198.086 361.184C198.702 360.597 199.142 360.304 199.406 360.304C199.523 360.304 199.699 360.414 199.934 360.634C200.168 360.854 200.286 361.059 200.286 361.25C200.286 361.631 199.824 362.181 198.9 362.9C198.489 363.237 197.99 363.523 197.404 363.758C196.832 363.978 196.296 364.088 195.798 364.088C194.522 364.088 193.583 363.267 192.982 361.624C192.6 360.612 192.41 359.497 192.41 358.28C192.41 357.063 192.696 356.014 193.268 355.134C193.84 354.254 194.742 353.814 195.974 353.814ZM196.084 355.332C195.526 355.332 195.05 355.647 194.654 356.278C194.507 356.498 194.368 356.997 194.236 357.774C196.289 357.774 197.316 357.268 197.316 356.256C197.316 355.64 196.905 355.332 196.084 355.332ZM208.677 353.616C208.883 353.616 209.037 353.689 209.139 353.836C209.242 353.968 209.293 354.115 209.293 354.276L209.271 354.496C208.655 356.065 208.201 357.341 207.907 358.324C207.717 359.013 207.57 359.527 207.467 359.864C207.379 360.201 207.225 360.795 207.005 361.646C206.785 362.497 206.639 363.047 206.565 363.296C206.36 363.795 206.001 364.044 205.487 364.044C205.238 364.044 205.062 363.883 204.959 363.56C204.49 362.093 203.801 360.436 202.891 358.588C201.982 356.74 201.461 355.684 201.329 355.42C201.212 355.141 201.153 354.892 201.153 354.672C201.153 354.452 201.249 354.239 201.439 354.034C201.645 353.829 201.872 353.726 202.121 353.726C202.371 353.726 202.583 353.858 202.759 354.122C202.921 354.445 203.375 355.347 204.123 356.828C204.886 358.309 205.421 359.475 205.729 360.326C205.744 360.238 205.795 360.055 205.883 359.776C206.631 357.18 207.24 355.325 207.709 354.21C207.959 353.814 208.281 353.616 208.677 353.616ZM213.548 353.814C214.325 353.814 215.066 354.041 215.77 354.496C216.474 354.951 216.826 355.515 216.826 356.19C216.826 356.85 216.54 357.495 215.968 358.126C215.396 358.742 214.633 359.116 213.68 359.248C213.269 359.307 212.653 359.336 211.832 359.336C211.993 360.583 212.309 361.404 212.778 361.8C212.925 361.961 213.123 362.042 213.372 362.042C214.281 362.042 215.044 361.756 215.66 361.184C216.276 360.597 216.716 360.304 216.98 360.304C217.097 360.304 217.273 360.414 217.508 360.634C217.743 360.854 217.86 361.059 217.86 361.25C217.86 361.631 217.398 362.181 216.474 362.9C216.063 363.237 215.565 363.523 214.978 363.758C214.406 363.978 213.871 364.088 213.372 364.088C212.096 364.088 211.157 363.267 210.556 361.624C210.175 360.612 209.984 359.497 209.984 358.28C209.984 357.063 210.27 356.014 210.842 355.134C211.414 354.254 212.316 353.814 213.548 353.814ZM213.658 355.332C213.101 355.332 212.624 355.647 212.228 356.278C212.081 356.498 211.942 356.997 211.81 357.774C213.863 357.774 214.89 357.268 214.89 356.256C214.89 355.64 214.479 355.332 213.658 355.332ZM219.08 349.766C219.124 349.209 219.212 348.849 219.344 348.688C219.49 348.512 219.718 348.424 220.026 348.424C220.656 348.424 220.972 348.681 220.972 349.194C220.972 349.59 220.935 350.624 220.862 352.296C220.803 353.968 220.774 355.464 220.774 356.784C220.774 358.104 220.825 359.167 220.928 359.974C221.104 361.382 221.353 362.086 221.676 362.086C221.998 362.086 222.24 361.859 222.402 361.404C222.475 361.228 222.592 361.074 222.754 360.942C222.915 360.795 223.12 360.722 223.37 360.722C223.883 360.722 224.14 361.155 224.14 362.02C224.14 362.489 223.883 362.959 223.37 363.428C222.871 363.883 222.372 364.11 221.874 364.11C221.375 364.11 220.972 364.029 220.664 363.868C220.37 363.692 220.128 363.435 219.938 363.098C219.762 362.761 219.615 362.438 219.498 362.13C219.395 361.807 219.322 361.419 219.278 360.964C219.19 360.231 219.124 359.057 219.08 357.444C219.05 355.816 219.036 354.269 219.036 352.802C219.036 351.321 219.05 350.309 219.08 349.766ZM236.176 362.966C236.176 363.685 235.787 364.044 235.01 364.044C234.848 364.044 234.702 363.978 234.57 363.846C234.452 363.699 234.394 363.479 234.394 363.186L234.328 357.598C234.328 355.75 234.35 354.012 234.394 352.384C233.895 352.824 233.411 353.33 232.942 353.902C232.472 354.474 232.15 354.855 231.974 355.046C231.812 355.237 231.592 355.427 231.314 355.618C231.05 355.794 230.8 355.882 230.566 355.882C230.331 355.882 230.14 355.801 229.994 355.64C229.862 355.479 229.796 355.281 229.796 355.046C229.796 354.811 229.964 354.496 230.302 354.1C230.654 353.689 231.93 352.318 234.13 349.986C234.467 349.678 234.892 349.524 235.406 349.524C235.655 349.524 235.86 349.597 236.022 349.744C236.183 349.891 236.264 350.059 236.264 350.25L236.11 356.168L236.176 362.966Z" fill="white"/>
<path d="M68 334H353V326H68V334ZM357 338V374H365V338H357ZM353 378H68V386H353V378ZM64 374V338H56V374H64ZM68 378C65.7909 378 64 376.209 64 374H56C56 380.627 61.3726 386 68 386V378ZM357 374C357 376.209 355.209 378 353 378V386C359.627 386 365 380.627 365 374H357ZM353 334C355.209 334 357 335.791 357 338H365C365 331.373 359.627 326 353 326V334ZM68 326C61.3726 326 56 331.373 56 338H64C64 335.791 65.7909 334 68 334V326Z" fill="#333333"/>
</g>
<g filter="url(#filter2_d_1875_3299)">
<path d="M60 424C60 419.582 63.5817 416 68 416H353C357.418 416 361 419.582 361 424V460C361 464.418 357.418 468 353 468H68C63.5817 468 60 464.418 60 460V424Z" fill="#333333"/>
<path d="M183.229 446.942L183.251 445.226L183.449 436.03C183.449 435.854 183.544 435.715 183.735 435.612C183.925 435.509 184.167 435.458 184.461 435.458C185.165 435.458 185.517 435.707 185.517 436.206C185.517 436.367 185.429 437.599 185.253 439.902C185.091 442.205 185.011 443.583 185.011 444.038C185.011 444.038 185.011 444.815 185.011 446.37C185.011 447.47 185.084 448.071 185.231 448.174C185.451 448.247 185.707 448.284 186.001 448.284L189.169 448.064C189.858 448.064 190.203 448.313 190.203 448.812C190.203 449.208 190.012 449.501 189.631 449.692C189.264 449.868 188.897 449.971 188.531 450C188.164 450.015 187.717 450.022 187.189 450.022C184.886 450.022 183.639 449.949 183.449 449.802C183.346 449.714 183.287 449.384 183.273 448.812C183.258 448.225 183.243 447.815 183.229 447.58C183.229 447.345 183.229 447.133 183.229 446.942ZM194.824 439.814C195.602 439.814 196.342 440.041 197.046 440.496C197.75 440.951 198.102 441.515 198.102 442.19C198.102 442.85 197.816 443.495 197.244 444.126C196.672 444.742 195.91 445.116 194.956 445.248C194.546 445.307 193.93 445.336 193.108 445.336C193.27 446.583 193.585 447.404 194.054 447.8C194.201 447.961 194.399 448.042 194.648 448.042C195.558 448.042 196.32 447.756 196.936 447.184C197.552 446.597 197.992 446.304 198.256 446.304C198.374 446.304 198.55 446.414 198.784 446.634C199.019 446.854 199.136 447.059 199.136 447.25C199.136 447.631 198.674 448.181 197.75 448.9C197.34 449.237 196.841 449.523 196.254 449.758C195.682 449.978 195.147 450.088 194.648 450.088C193.372 450.088 192.434 449.267 191.832 447.624C191.451 446.612 191.26 445.497 191.26 444.28C191.26 443.063 191.546 442.014 192.118 441.134C192.69 440.254 193.592 439.814 194.824 439.814ZM194.934 441.332C194.377 441.332 193.9 441.647 193.504 442.278C193.358 442.498 193.218 442.997 193.086 443.774C195.14 443.774 196.166 443.268 196.166 442.256C196.166 441.64 195.756 441.332 194.934 441.332ZM207.528 439.616C207.733 439.616 207.887 439.689 207.99 439.836C208.093 439.968 208.144 440.115 208.144 440.276L208.122 440.496C207.506 442.065 207.051 443.341 206.758 444.324C206.567 445.013 206.421 445.527 206.318 445.864C206.23 446.201 206.076 446.795 205.856 447.646C205.636 448.497 205.489 449.047 205.416 449.296C205.211 449.795 204.851 450.044 204.338 450.044C204.089 450.044 203.913 449.883 203.81 449.56C203.341 448.093 202.651 446.436 201.742 444.588C200.833 442.74 200.312 441.684 200.18 441.42C200.063 441.141 200.004 440.892 200.004 440.672C200.004 440.452 200.099 440.239 200.29 440.034C200.495 439.829 200.723 439.726 200.972 439.726C201.221 439.726 201.434 439.858 201.61 440.122C201.771 440.445 202.226 441.347 202.974 442.828C203.737 444.309 204.272 445.475 204.58 446.326C204.595 446.238 204.646 446.055 204.734 445.776C205.482 443.18 206.091 441.325 206.56 440.21C206.809 439.814 207.132 439.616 207.528 439.616ZM212.399 439.814C213.176 439.814 213.917 440.041 214.621 440.496C215.325 440.951 215.677 441.515 215.677 442.19C215.677 442.85 215.391 443.495 214.819 444.126C214.247 444.742 213.484 445.116 212.531 445.248C212.12 445.307 211.504 445.336 210.683 445.336C210.844 446.583 211.159 447.404 211.629 447.8C211.775 447.961 211.973 448.042 212.223 448.042C213.132 448.042 213.895 447.756 214.511 447.184C215.127 446.597 215.567 446.304 215.831 446.304C215.948 446.304 216.124 446.414 216.359 446.634C216.593 446.854 216.711 447.059 216.711 447.25C216.711 447.631 216.249 448.181 215.325 448.9C214.914 449.237 214.415 449.523 213.829 449.758C213.257 449.978 212.721 450.088 212.223 450.088C210.947 450.088 210.008 449.267 209.407 447.624C209.025 446.612 208.835 445.497 208.835 444.28C208.835 443.063 209.121 442.014 209.693 441.134C210.265 440.254 211.167 439.814 212.399 439.814ZM212.509 441.332C211.951 441.332 211.475 441.647 211.079 442.278C210.932 442.498 210.793 442.997 210.661 443.774C212.714 443.774 213.741 443.268 213.741 442.256C213.741 441.64 213.33 441.332 212.509 441.332ZM217.93 435.766C217.974 435.209 218.062 434.849 218.194 434.688C218.341 434.512 218.568 434.424 218.876 434.424C219.507 434.424 219.822 434.681 219.822 435.194C219.822 435.59 219.785 436.624 219.712 438.296C219.653 439.968 219.624 441.464 219.624 442.784C219.624 444.104 219.675 445.167 219.778 445.974C219.954 447.382 220.203 448.086 220.526 448.086C220.849 448.086 221.091 447.859 221.252 447.404C221.325 447.228 221.443 447.074 221.604 446.942C221.765 446.795 221.971 446.722 222.22 446.722C222.733 446.722 222.99 447.155 222.99 448.02C222.99 448.489 222.733 448.959 222.22 449.428C221.721 449.883 221.223 450.11 220.724 450.11C220.225 450.11 219.822 450.029 219.514 449.868C219.221 449.692 218.979 449.435 218.788 449.098C218.612 448.761 218.465 448.438 218.348 448.13C218.245 447.807 218.172 447.419 218.128 446.964C218.04 446.231 217.974 445.057 217.93 443.444C217.901 441.816 217.886 440.269 217.886 438.802C217.886 437.321 217.901 436.309 217.93 435.766ZM234.52 450.044L231.286 450C231.14 450 230.993 450 230.846 450C229.394 450 228.668 449.721 228.668 449.164C228.668 448.768 228.742 448.394 228.888 448.042C229.035 447.69 229.174 447.426 229.306 447.25C229.438 447.074 229.702 446.781 230.098 446.37C230.494 445.959 230.78 445.651 230.956 445.446C231.132 445.241 231.66 444.72 232.54 443.884C233.435 443.048 234.102 442.293 234.542 441.618C234.997 440.943 235.224 440.232 235.224 439.484C235.224 438.325 234.762 437.577 233.838 437.24C233.574 437.152 233.303 437.108 233.024 437.108C232.394 437.108 231.763 437.379 231.132 437.922C230.883 438.157 230.619 438.274 230.34 438.274C230.252 438.274 230.172 438.267 230.098 438.252C229.732 438.164 229.548 437.907 229.548 437.482C229.548 436.91 229.952 436.433 230.758 436.052C231.624 435.641 232.562 435.436 233.574 435.436C234.601 435.436 235.437 435.81 236.082 436.558C236.742 437.291 237.072 438.208 237.072 439.308C237.072 440.877 236.588 442.227 235.62 443.356C235.166 443.884 234.704 444.375 234.234 444.83C232.753 446.238 231.763 447.309 231.264 448.042C231.924 448.086 232.738 448.108 233.706 448.108C234.689 448.108 235.899 448.049 237.336 447.932C237.556 447.976 237.732 448.079 237.864 448.24C238.011 448.387 238.084 448.555 238.084 448.746C238.084 449.245 237.82 449.589 237.292 449.78C236.764 449.956 235.84 450.044 234.52 450.044Z" fill="white"/>
<path d="M68 420H353V412H68V420ZM357 424V460H365V424H357ZM353 464H68V472H353V464ZM64 460V424H56V460H64ZM68 464C65.7909 464 64 462.209 64 460H56C56 466.627 61.3726 472 68 472V464ZM357 460C357 462.209 355.209 464 353 464V472C359.627 472 365 466.627 365 460H357ZM353 420C355.209 420 357 421.791 357 424H365C365 417.373 359.627 412 353 412V420ZM68 412C61.3726 412 56 417.373 56 424H64C64 421.791 65.7909 420 68 420V412Z" fill="#333333"/>
</g>
<g filter="url(#filter3_d_1875_3299)">
<path d="M60 510C60 505.582 63.5817 502 68 502H353C357.418 502 361 505.582 361 510V546C361 550.418 357.418 554 353 554H68C63.5817 554 60 550.418 60 546V510Z" fill="#333333"/>
<path d="M183.444 532.942L183.466 531.226L183.664 522.03C183.664 521.854 183.759 521.715 183.95 521.612C184.14 521.509 184.382 521.458 184.676 521.458C185.38 521.458 185.732 521.707 185.732 522.206C185.732 522.367 185.644 523.599 185.468 525.902C185.306 528.205 185.226 529.583 185.226 530.038C185.226 530.038 185.226 530.815 185.226 532.37C185.226 533.47 185.299 534.071 185.446 534.174C185.666 534.247 185.922 534.284 186.216 534.284L189.384 534.064C190.073 534.064 190.418 534.313 190.418 534.812C190.418 535.208 190.227 535.501 189.846 535.692C189.479 535.868 189.112 535.971 188.746 536C188.379 536.015 187.932 536.022 187.404 536.022C185.101 536.022 183.854 535.949 183.664 535.802C183.561 535.714 183.502 535.384 183.488 534.812C183.473 534.225 183.458 533.815 183.444 533.58C183.444 533.345 183.444 533.133 183.444 532.942ZM195.039 525.814C195.816 525.814 196.557 526.041 197.261 526.496C197.965 526.951 198.317 527.515 198.317 528.19C198.317 528.85 198.031 529.495 197.459 530.126C196.887 530.742 196.124 531.116 195.171 531.248C194.76 531.307 194.144 531.336 193.323 531.336C193.484 532.583 193.8 533.404 194.269 533.8C194.416 533.961 194.614 534.042 194.863 534.042C195.772 534.042 196.535 533.756 197.151 533.184C197.767 532.597 198.207 532.304 198.471 532.304C198.588 532.304 198.764 532.414 198.999 532.634C199.234 532.854 199.351 533.059 199.351 533.25C199.351 533.631 198.889 534.181 197.965 534.9C197.554 535.237 197.056 535.523 196.469 535.758C195.897 535.978 195.362 536.088 194.863 536.088C193.587 536.088 192.648 535.267 192.047 533.624C191.666 532.612 191.475 531.497 191.475 530.28C191.475 529.063 191.761 528.014 192.333 527.134C192.905 526.254 193.807 525.814 195.039 525.814ZM195.149 527.332C194.592 527.332 194.115 527.647 193.719 528.278C193.572 528.498 193.433 528.997 193.301 529.774C195.354 529.774 196.381 529.268 196.381 528.256C196.381 527.64 195.97 527.332 195.149 527.332ZM207.743 525.616C207.948 525.616 208.102 525.689 208.205 525.836C208.307 525.968 208.359 526.115 208.359 526.276L208.337 526.496C207.721 528.065 207.266 529.341 206.973 530.324C206.782 531.013 206.635 531.527 206.533 531.864C206.445 532.201 206.291 532.795 206.071 533.646C205.851 534.497 205.704 535.047 205.631 535.296C205.425 535.795 205.066 536.044 204.553 536.044C204.303 536.044 204.127 535.883 204.025 535.56C203.555 534.093 202.866 532.436 201.957 530.588C201.047 528.74 200.527 527.684 200.395 527.42C200.277 527.141 200.219 526.892 200.219 526.672C200.219 526.452 200.314 526.239 200.505 526.034C200.71 525.829 200.937 525.726 201.187 525.726C201.436 525.726 201.649 525.858 201.825 526.122C201.986 526.445 202.441 527.347 203.189 528.828C203.951 530.309 204.487 531.475 204.795 532.326C204.809 532.238 204.861 532.055 204.949 531.776C205.697 529.18 206.305 527.325 206.775 526.21C207.024 525.814 207.347 525.616 207.743 525.616ZM212.613 525.814C213.391 525.814 214.131 526.041 214.835 526.496C215.539 526.951 215.891 527.515 215.891 528.19C215.891 528.85 215.605 529.495 215.033 530.126C214.461 530.742 213.699 531.116 212.745 531.248C212.335 531.307 211.719 531.336 210.897 531.336C211.059 532.583 211.374 533.404 211.843 533.8C211.99 533.961 212.188 534.042 212.437 534.042C213.347 534.042 214.109 533.756 214.725 533.184C215.341 532.597 215.781 532.304 216.045 532.304C216.163 532.304 216.339 532.414 216.573 532.634C216.808 532.854 216.925 533.059 216.925 533.25C216.925 533.631 216.463 534.181 215.539 534.9C215.129 535.237 214.63 535.523 214.043 535.758C213.471 535.978 212.936 536.088 212.437 536.088C211.161 536.088 210.223 535.267 209.621 533.624C209.24 532.612 209.049 531.497 209.049 530.28C209.049 529.063 209.335 528.014 209.907 527.134C210.479 526.254 211.381 525.814 212.613 525.814ZM212.723 527.332C212.166 527.332 211.689 527.647 211.293 528.278C211.147 528.498 211.007 528.997 210.875 529.774C212.929 529.774 213.955 529.268 213.955 528.256C213.955 527.64 213.545 527.332 212.723 527.332ZM218.145 521.766C218.189 521.209 218.277 520.849 218.409 520.688C218.556 520.512 218.783 520.424 219.091 520.424C219.722 520.424 220.037 520.681 220.037 521.194C220.037 521.59 220 522.624 219.927 524.296C219.868 525.968 219.839 527.464 219.839 528.784C219.839 530.104 219.89 531.167 219.993 531.974C220.169 533.382 220.418 534.086 220.741 534.086C221.064 534.086 221.306 533.859 221.467 533.404C221.54 533.228 221.658 533.074 221.819 532.942C221.98 532.795 222.186 532.722 222.435 532.722C222.948 532.722 223.205 533.155 223.205 534.02C223.205 534.489 222.948 534.959 222.435 535.428C221.936 535.883 221.438 536.11 220.939 536.11C220.44 536.11 220.037 536.029 219.729 535.868C219.436 535.692 219.194 535.435 219.003 535.098C218.827 534.761 218.68 534.438 218.563 534.13C218.46 533.807 218.387 533.419 218.343 532.964C218.255 532.231 218.189 531.057 218.145 529.444C218.116 527.816 218.101 526.269 218.101 524.802C218.101 523.321 218.116 522.309 218.145 521.766ZM233.085 523.152C232.22 523.152 231.413 523.526 230.665 524.274C230.46 524.421 230.276 524.494 230.115 524.494C229.954 524.494 229.814 524.479 229.697 524.45C229.36 524.347 229.191 524.113 229.191 523.746C229.191 523.145 229.572 522.617 230.335 522.162C231.098 521.707 232 521.48 233.041 521.48C234.082 521.48 234.948 521.759 235.637 522.316C236.341 522.859 236.693 523.57 236.693 524.45C236.693 525.33 236.59 526.063 236.385 526.65C236.194 527.237 235.769 527.721 235.109 528.102C236.664 528.689 237.441 529.745 237.441 531.27C237.441 532.561 237.052 533.675 236.275 534.614C235.498 535.538 234.544 536 233.415 536C232.3 536 231.318 535.736 230.467 535.208C229.616 534.665 229.191 534.057 229.191 533.382C229.191 533.25 229.264 533.096 229.411 532.92C229.558 532.744 229.77 532.656 230.049 532.656C230.328 532.656 230.628 532.788 230.951 533.052C231.274 533.301 231.64 533.558 232.051 533.822C232.462 534.071 232.924 534.196 233.437 534.196C234.904 534.196 235.637 533.279 235.637 531.446C235.637 530.742 235.38 530.177 234.867 529.752C234.368 529.312 233.657 529.085 232.733 529.07C232.542 529.055 232.396 529.041 232.293 529.026C232.205 529.011 232.08 528.945 231.919 528.828C231.772 528.711 231.699 528.527 231.699 528.278C231.699 527.75 231.992 527.464 232.579 527.42C233.166 527.376 233.686 527.112 234.141 526.628C234.61 526.144 234.845 525.535 234.845 524.802C234.845 524.391 234.669 524.017 234.317 523.68C233.965 523.328 233.554 523.152 233.085 523.152Z" fill="white"/>
<path d="M68 506H353V498H68V506ZM357 510V546H365V510H357ZM353 550H68V558H353V550ZM64 546V510H56V546H64ZM68 550C65.7909 550 64 548.209 64 546H56C56 552.627 61.3726 558 68 558V550ZM357 546C357 548.209 355.209 550 353 550V558C359.627 558 365 552.627 365 546H357ZM353 506C355.209 506 357 507.791 357 510H365C365 503.373 359.627 498 353 498V506ZM68 498C61.3726 498 56 503.373 56 510H64C64 507.791 65.7909 506 68 506V498Z" fill="#333333"/>
</g>
<path d="M171.019 187.665C171.019 187.511 171.131 187.357 171.355 187.203C171.579 187.049 171.796 186.972 172.006 186.972C172.23 186.972 172.398 187.021 172.51 187.119C172.636 187.217 172.706 187.336 172.72 187.476C173.014 191.256 173.161 193.65 173.161 194.658C173.161 195.652 173.147 196.401 173.119 196.905C173.091 197.409 173.021 197.955 172.909 198.543C172.797 199.117 172.636 199.572 172.426 199.908C171.964 200.692 171.222 201.084 170.2 201.084C169.178 201.084 168.345 200.748 167.701 200.076C167.057 199.39 166.735 198.41 166.735 197.136C166.735 196.926 166.84 196.737 167.05 196.569C167.274 196.387 167.512 196.296 167.764 196.296C168.072 196.296 168.261 196.583 168.331 197.157C168.513 198.781 169.122 199.593 170.158 199.593C170.424 199.593 170.648 199.509 170.83 199.341C171.026 199.159 171.173 198.949 171.271 198.711C171.369 198.459 171.446 198.13 171.502 197.724C171.586 197.136 171.628 196.436 171.628 195.624C171.628 194.798 171.523 193.3 171.313 191.13C171.117 188.96 171.019 187.805 171.019 187.665ZM178.287 191.214C179.295 191.214 180.121 191.697 180.765 192.663C181.423 193.629 181.752 194.791 181.752 196.149C181.752 197.493 181.416 198.641 180.744 199.593C180.086 200.545 179.204 201.021 178.098 201.021C177.006 201.021 176.124 200.538 175.452 199.572C174.78 198.592 174.444 197.507 174.444 196.317C174.444 194.791 174.752 193.573 175.368 192.663C176.026 191.697 176.999 191.214 178.287 191.214ZM178.035 192.936C177.447 192.936 176.964 193.244 176.586 193.86C176.208 194.476 176.019 195.127 176.019 195.813C176.019 196.877 176.229 197.689 176.649 198.249C177.069 198.809 177.545 199.089 178.077 199.089C179.029 199.089 179.638 198.676 179.904 197.85C180.016 197.458 180.072 196.968 180.072 196.38C180.072 194.084 179.393 192.936 178.035 192.936ZM185.287 194.196L185.455 199.152C185.455 199.768 185.427 200.125 185.371 200.223C185.343 200.475 185.259 200.671 185.119 200.811C184.993 200.951 184.741 201.021 184.363 201.021C184.181 201.021 184.034 200.909 183.922 200.685C183.81 200.447 183.747 200.181 183.733 199.887C183.635 197.423 183.502 195.113 183.334 192.957C183.18 190.787 183.103 188.771 183.103 186.909C183.103 186.615 183.201 186.384 183.397 186.216C183.593 186.048 183.824 185.964 184.09 185.964C184.482 185.964 184.713 186.3 184.783 186.972C184.867 187.644 184.916 188.484 184.93 189.492C184.958 190.5 184.986 191.235 185.014 191.697C185.714 191.333 186.414 191.151 187.114 191.151C188.738 191.151 189.767 191.865 190.201 193.293C190.453 194.105 190.579 195.148 190.579 196.422C190.579 196.842 190.537 197.507 190.453 198.417C190.383 199.313 190.341 199.894 190.327 200.16C190.313 200.426 190.194 200.636 189.97 200.79C189.76 200.93 189.529 201 189.277 201C188.885 201 188.689 200.79 188.689 200.37L188.836 196.716C188.836 196.408 188.822 195.897 188.794 195.183C188.766 194.469 188.619 193.902 188.353 193.482C188.101 193.062 187.653 192.852 187.009 192.852C185.861 192.852 185.287 193.3 185.287 194.196ZM192.657 200.349L192.426 191.823C192.426 191.557 192.517 191.34 192.699 191.172C192.881 191.004 193.063 190.92 193.245 190.92C193.693 190.92 193.952 191.109 194.022 191.487C194.078 191.865 194.106 192.257 194.106 192.663C194.862 191.669 195.807 191.172 196.941 191.172C198.677 191.172 199.545 193.153 199.545 197.115C199.545 197.479 199.545 198.032 199.545 198.774C199.545 199.502 199.503 200.034 199.419 200.37C199.321 200.79 199.02 201 198.516 201C198.18 201 198.012 200.776 198.012 200.328L198.033 199.152C198.033 197.528 197.977 196.422 197.865 195.834C197.767 195.232 197.669 194.756 197.571 194.406C197.333 193.65 196.948 193.272 196.416 193.272C195.716 193.272 195.226 193.524 194.946 194.028C194.638 194.574 194.456 195.218 194.4 195.96C194.302 197.262 194.253 198.641 194.253 200.097C194.253 200.377 194.148 200.601 193.938 200.769C193.728 200.937 193.476 201.021 193.182 201.021C192.832 201.021 192.657 200.797 192.657 200.349ZM210.982 187.098C211.892 187.098 212.662 187.252 213.292 187.56C213.936 187.868 214.258 188.26 214.258 188.736C214.258 188.946 214.202 189.128 214.09 189.282C213.992 189.436 213.838 189.513 213.628 189.513C213.432 189.513 212.998 189.359 212.326 189.051C211.654 188.729 211.038 188.568 210.478 188.568C209.932 188.568 209.365 188.743 208.777 189.093C208.189 189.443 207.895 189.87 207.895 190.374C207.895 191.06 208.252 191.564 208.966 191.886C209.498 192.124 210.261 192.341 211.255 192.537C212.249 192.719 213.061 193.104 213.691 193.692C214.321 194.266 214.636 195.141 214.636 196.317C214.636 198.109 214.097 199.432 213.019 200.286C212.417 200.762 211.563 201 210.457 201C209.365 201 208.273 200.699 207.181 200.097C206.467 199.719 206.11 199.341 206.11 198.963C206.11 198.823 206.166 198.669 206.278 198.501C206.404 198.333 206.572 198.193 206.782 198.081C206.992 197.969 207.181 197.955 207.349 198.039C207.531 198.109 207.818 198.242 208.21 198.438C208.602 198.634 208.889 198.767 209.071 198.837C209.659 199.061 210.212 199.173 210.73 199.173C211.248 199.173 211.745 198.921 212.221 198.417C212.711 197.899 212.956 197.269 212.956 196.527C212.956 195.547 212.466 194.861 211.486 194.469C211.01 194.273 210.471 194.126 209.869 194.028C208.623 193.804 207.685 193.433 207.055 192.915C206.425 192.383 206.11 191.585 206.11 190.521C206.11 189.457 206.565 188.624 207.475 188.022C208.385 187.406 209.554 187.098 210.982 187.098ZM217.029 201.021C216.665 201.021 216.448 200.818 216.378 200.412C216.378 197.584 216.21 195.064 215.874 192.852C215.874 192.572 215.972 192.32 216.168 192.096C216.378 191.872 216.609 191.76 216.861 191.76C217.127 191.76 217.323 191.907 217.449 192.201C217.967 191.515 218.66 191.172 219.528 191.172C220.634 191.172 221.488 191.704 222.09 192.768C222.79 191.76 223.714 191.256 224.862 191.256C226.024 191.256 226.892 191.718 227.466 192.642C227.844 193.216 228.11 193.972 228.264 194.91C228.418 195.848 228.495 197.178 228.495 198.9C228.495 199.572 228.425 200.097 228.285 200.475C228.145 200.839 227.851 201.021 227.403 201.021C227.039 201.021 226.857 200.79 226.857 200.328L226.92 197.703C226.92 194.553 226.101 192.978 224.463 192.978C223.945 192.978 223.581 193.16 223.371 193.524C223.133 193.958 222.993 194.413 222.951 194.889C222.895 195.729 222.867 196.492 222.867 197.178V200.223C222.867 200.447 222.755 200.636 222.531 200.79C222.307 200.944 222.076 201.021 221.838 201.021C221.53 201.021 221.334 200.818 221.25 200.412L221.313 196.065C221.313 194.525 221.054 193.566 220.536 193.188C220.284 193.006 219.899 192.915 219.381 192.915C218.877 192.915 218.499 193.104 218.247 193.482C218.009 193.86 217.89 194.469 217.89 195.309L218.016 199.215C218.016 200.419 217.687 201.021 217.029 201.021ZM231.492 187.728C231.744 187.728 231.982 187.847 232.206 188.085C232.43 188.323 232.542 188.575 232.542 188.841C232.542 189.093 232.416 189.352 232.164 189.618C231.926 189.884 231.674 190.017 231.408 190.017C231.142 190.017 230.897 189.905 230.673 189.681C230.463 189.457 230.358 189.17 230.358 188.82C230.358 188.148 230.722 187.784 231.45 187.728C231.464 187.728 231.478 187.728 231.492 187.728ZM232.374 198.732L232.395 200.202C232.395 200.468 232.29 200.692 232.08 200.874C231.87 201.042 231.646 201.126 231.408 201.126C231.058 201.126 230.876 200.951 230.862 200.601C230.68 196.135 230.589 193.664 230.589 193.188C230.589 192.712 230.61 192.131 230.652 191.445C230.68 191.193 230.841 191.067 231.135 191.067C231.877 191.067 232.297 191.368 232.395 191.97C232.437 192.278 232.458 192.523 232.458 192.705L232.374 194.028V198.732ZM235.327 191.193L236.377 191.214C236.615 191.214 236.748 191.207 236.776 191.193V186.888C236.79 186.65 236.909 186.447 237.133 186.279C237.357 186.111 237.567 186.027 237.763 186.027C237.959 186.027 238.113 186.09 238.225 186.216C238.351 186.342 238.407 186.538 238.393 186.804C238.379 187.07 238.372 188.526 238.372 191.172L240.829 191.088C241.249 191.088 241.459 191.333 241.459 191.823C241.459 192.187 241.347 192.46 241.123 192.642C240.913 192.824 240.682 192.922 240.43 192.936C240.192 192.95 239.954 192.957 239.716 192.957L238.435 192.936C238.435 193.51 238.491 194.644 238.603 196.338C238.729 198.032 238.827 199.131 238.897 199.635C238.967 200.125 238.981 200.447 238.939 200.601C238.897 200.741 238.82 200.839 238.708 200.895C238.526 200.979 238.281 201.021 237.973 201.021C237.665 201.021 237.483 200.853 237.427 200.517C237.147 198.683 236.958 196.163 236.86 192.957C236.734 192.971 236.251 192.978 235.411 192.978C234.571 192.978 234.151 192.733 234.151 192.243C234.151 191.543 234.543 191.193 235.327 191.193ZM244.268 194.196L244.436 199.152C244.436 199.768 244.408 200.125 244.352 200.223C244.324 200.475 244.24 200.671 244.1 200.811C243.974 200.951 243.722 201.021 243.344 201.021C243.162 201.021 243.015 200.909 242.903 200.685C242.791 200.447 242.728 200.181 242.714 199.887C242.616 197.423 242.483 195.113 242.315 192.957C242.161 190.787 242.084 188.771 242.084 186.909C242.084 186.615 242.182 186.384 242.378 186.216C242.574 186.048 242.805 185.964 243.071 185.964C243.463 185.964 243.694 186.3 243.764 186.972C243.848 187.644 243.897 188.484 243.911 189.492C243.939 190.5 243.967 191.235 243.995 191.697C244.695 191.333 245.395 191.151 246.095 191.151C247.719 191.151 248.748 191.865 249.182 193.293C249.434 194.105 249.56 195.148 249.56 196.422C249.56 196.842 249.518 197.507 249.434 198.417C249.364 199.313 249.322 199.894 249.308 200.16C249.294 200.426 249.175 200.636 248.951 200.79C248.741 200.93 248.51 201 248.258 201C247.866 201 247.67 200.79 247.67 200.37L247.817 196.716C247.817 196.408 247.803 195.897 247.775 195.183C247.747 194.469 247.6 193.902 247.334 193.482C247.082 193.062 246.634 192.852 245.99 192.852C244.842 192.852 244.268 193.3 244.268 194.196Z" fill="#18191F"/>
<path d="M346.5 38.2499C348.677 38.25 350.77 39.0911 352.347 40.5995C352.466 40.716 352.656 40.7145 352.773 40.5962L353.908 39.4436C353.967 39.3836 354 39.3024 354 39.2178C354 39.1333 353.966 39.0524 353.906 38.9931C349.766 35.0023 343.234 35.0023 339.095 38.9931C339.035 39.0524 339.001 39.1332 339 39.2178C338.999 39.3023 339.032 39.3836 339.092 39.4436L340.227 40.5962C340.344 40.7147 340.534 40.7161 340.653 40.5995C342.23 39.091 344.324 38.2499 346.5 38.2499ZM346.5 41.9998C347.696 41.9997 348.849 42.4468 349.736 43.2541C349.856 43.3687 350.044 43.3662 350.161 43.2485L351.295 42.0959C351.355 42.0355 351.388 41.9534 351.387 41.8682C351.386 41.783 351.352 41.7017 351.291 41.6425C348.592 39.1169 344.412 39.1169 341.712 41.6425C341.651 41.7017 341.617 41.783 341.616 41.8683C341.615 41.9535 341.648 42.0355 341.708 42.0959L342.842 43.2485C342.959 43.3662 343.148 43.3687 343.267 43.2541C344.153 42.4473 345.305 42.0003 346.5 41.9998ZM348.68 44.7505C348.74 44.6906 348.774 44.6082 348.772 44.5228C348.77 44.4373 348.734 44.3564 348.671 44.299C347.418 43.2332 345.583 43.2332 344.33 44.299C344.267 44.3563 344.23 44.4372 344.229 44.5227C344.227 44.6082 344.26 44.6906 344.321 44.7505L346.283 46.7419C346.34 46.8004 346.419 46.8333 346.5 46.8333C346.582 46.8333 346.661 46.8004 346.718 46.7419L348.68 44.7505Z" fill="#2F2F2F"/>
<path d="M360.735 38.8916C360.735 38.2528 361.253 37.7349 361.892 37.7349H377.795C378.434 37.7349 378.952 38.2528 378.952 38.8916V44.3855C378.952 45.0243 378.434 45.5422 377.795 45.5422H361.892C361.253 45.5422 360.735 45.0243 360.735 44.3855V38.8916Z" fill="#2F2F2F"/>
<path opacity="0.4" fill-rule="evenodd" clip-rule="evenodd" d="M361.892 36.8675H377.795C378.913 36.8675 379.819 37.7737 379.819 38.8916V44.3855C379.819 45.5034 378.913 46.4096 377.795 46.4096H361.892C360.774 46.4096 359.867 45.5034 359.867 44.3855V38.8916C359.867 37.7737 360.774 36.8675 361.892 36.8675ZM359 38.8916C359 37.2946 360.295 36 361.892 36H377.795C379.392 36 380.687 37.2946 380.687 38.8916V44.3855C380.687 45.9825 379.392 47.2771 377.795 47.2771H361.892C360.295 47.2771 359 45.9825 359 44.3855V38.8916ZM383 41.6386C383 42.5273 382.383 43.272 381.554 43.4678V39.8093C382.383 40.0051 383 40.7498 383 41.6386Z" fill="#2F2F2F"/>
<path fill-rule="evenodd" clip-rule="evenodd" d="M331.909 37C331.357 37 330.909 37.4477 330.909 38V46.3031C330.909 46.8553 331.357 47.3031 331.909 47.3031H333C333.552 47.3031 334 46.8553 334 46.3031V38C334 37.4477 333.552 37 333 37H331.909ZM326.273 40.0606C326.273 39.5083 326.72 39.0606 327.273 39.0606H328.364C328.916 39.0606 329.364 39.5083 329.364 40.0606V46.303C329.364 46.8553 328.916 47.303 328.364 47.303H327.273C326.72 47.303 326.273 46.8553 326.273 46.303V40.0606ZM322.636 41.1212C322.084 41.1212 321.636 41.569 321.636 42.1212V46.3031C321.636 46.8554 322.084 47.3031 322.636 47.3031H323.727C324.28 47.3031 324.727 46.8554 324.727 46.3031V42.1212C324.727 41.569 324.28 41.1212 323.727 41.1212H322.636ZM318.03 47.3031C317.461 47.3031 317 46.8418 317 46.2728V43.697C317 43.128 317.461 42.6667 318.03 42.6667H319.061C319.63 42.6667 320.091 43.128 320.091 43.697V46.2728C320.091 46.8418 319.63 47.3031 319.061 47.3031H318.03Z" fill="#2F2F2F"/>
<path d="M51.672 35.751L47.5499 45H46.21L50.3184 36.0723H44.9386V35.0469H51.672V35.751ZM52.9095 44.3369C52.9095 44.1227 52.9756 43.9427 53.1078 43.7969C53.2445 43.6465 53.4405 43.5713 53.6957 43.5713C53.9554 43.5713 54.1514 43.6465 54.2836 43.7969C54.4203 43.9427 54.4886 44.1227 54.4886 44.3369C54.4886 44.5465 54.4203 44.722 54.2836 44.8633C54.1514 45.0046 53.9554 45.0752 53.6957 45.0752C53.4405 45.0752 53.2445 45.0046 53.1078 44.8633C52.9756 44.722 52.9095 44.5465 52.9095 44.3369ZM52.9164 38.2939C52.9164 38.0798 52.9824 37.8997 53.1146 37.7539C53.2513 37.6035 53.4473 37.5283 53.7025 37.5283C53.9623 37.5283 54.1582 37.6035 54.2904 37.7539C54.4271 37.8997 54.4955 38.0798 54.4955 38.2939C54.4955 38.5036 54.4271 38.679 54.2904 38.8203C54.1582 38.9616 53.9623 39.0322 53.7025 39.0322C53.4473 39.0322 53.2513 38.9616 53.1146 38.8203C52.9824 38.679 52.9164 38.5036 52.9164 38.2939ZM62.1998 40.7549C62.1998 41.835 62.0722 42.6963 61.817 43.3389C61.5664 43.9769 61.2064 44.4372 60.737 44.7197C60.2676 44.9977 59.7116 45.1367 59.069 45.1367C58.4355 45.1367 57.8818 44.9977 57.4079 44.7197C56.9339 44.4372 56.5648 43.9769 56.3004 43.3389C56.0407 42.6963 55.9108 41.835 55.9108 40.7549V39.2305C55.9108 38.1458 56.0384 37.2891 56.2936 36.6602C56.5534 36.0312 56.9179 35.5824 57.3873 35.3135C57.8613 35.0446 58.4173 34.9102 59.0553 34.9102C59.6979 34.9102 60.2539 35.0446 60.7233 35.3135C61.1927 35.5824 61.555 36.0312 61.8102 36.6602C62.07 37.2891 62.1998 38.1458 62.1998 39.2305V40.7549ZM60.9215 39.0186C60.9215 38.2712 60.8509 37.6719 60.7096 37.2207C60.5683 36.7695 60.3587 36.4437 60.0807 36.2432C59.8027 36.0381 59.4609 35.9355 59.0553 35.9355C58.6543 35.9355 58.3148 36.0381 58.0368 36.2432C57.7588 36.4437 57.5468 36.7695 57.401 37.2207C57.2597 37.6719 57.1891 38.2712 57.1891 39.0186V40.9531C57.1891 41.696 57.262 42.2998 57.4079 42.7646C57.5537 43.2295 57.7656 43.5713 58.0436 43.79C58.3261 44.0042 58.6679 44.1113 59.069 44.1113C59.4791 44.1113 59.8209 44.0042 60.0944 43.79C60.3678 43.5713 60.5729 43.2295 60.7096 42.7646C60.8509 42.2998 60.9215 41.696 60.9215 40.9531V39.0186ZM70.0751 45H63.5468V44.0977L66.8075 40.4678C67.2131 40.0212 67.5253 39.6429 67.7441 39.333C67.9674 39.0186 68.1223 38.736 68.2089 38.4854C68.2955 38.2347 68.3388 37.9795 68.3388 37.7197C68.3388 37.2275 68.1884 36.8083 67.8876 36.4619C67.5914 36.111 67.1676 35.9355 66.6161 35.9355C66.1695 35.9355 65.7981 36.0221 65.5019 36.1953C65.2102 36.3685 64.9915 36.6077 64.8456 36.9131C64.7043 37.2184 64.6337 37.5716 64.6337 37.9727H63.3554C63.3554 37.4121 63.4784 36.8994 63.7245 36.4346C63.9706 35.9697 64.3352 35.6006 64.8183 35.3271C65.3059 35.0492 65.9052 34.9102 66.6161 34.9102C67.5549 34.9102 68.2887 35.154 68.8173 35.6416C69.3505 36.1292 69.6171 36.7718 69.6171 37.5693C69.6171 37.9613 69.5328 38.3555 69.3642 38.752C69.1956 39.1484 68.97 39.5426 68.6874 39.9346C68.4049 40.3219 68.0927 40.7002 67.7509 41.0693L65.0849 43.9746H70.0751V45Z" fill="#2F2F2F"/>
<path d="M132.768 20H287.184V35C287.184 44.3888 279.572 52 270.184 52H149.768C140.379 52 132.768 44.3888 132.768 35V20Z" fill="#232020"/>
<path fill-rule="evenodd" clip-rule="evenodd" d="M133 20H128V20C128 20 128 20 128 20C130.651 20 132.799 22.1487 132.799 24.7993C132.799 24.8666 132.798 24.9335 132.795 25H133V20Z" fill="#232020"/>
<path fill-rule="evenodd" clip-rule="evenodd" d="M287 20H292V20C292 20 292 20 292 20C289.349 20 287.201 22.1487 287.201 24.7993C287.201 24.8666 287.202 24.9335 287.205 25H287V20Z" fill="#232020"/>
<circle cx="155" cy="34" r="8" fill="#0F0E0E"/>
</g>
<defs>
<filter id="filter0_d_1875_3299" x="47" y="623" width="327" height="75" filterUnits="userSpaceOnUse" color-interpolation-filters="sRGB">
<feFlood flood-opacity="0" result="BackgroundImageFix"/>
<feColorMatrix in="SourceAlpha" type="matrix" values="0 0 0 0 0 0 0 0 0 0 0 0 0 0 0 0 0 0 127 0" result="hardAlpha"/>
<feOffset dy="4"/>
<feColorMatrix type="matrix" values="0 0 0 0 0.0941176 0 0 0 0 0.0980392 0 0 0 0 0.121569 0 0 0 1 0"/>
<feBlend mode="normal" in2="BackgroundImageFix" result="effect1_dropShadow_1875_3299"/>
<feBlend mode="normal" in="SourceGraphic" in2="effect1_dropShadow_1875_3299" result="shape"/>
</filter>
<filter id="filter1_d_1875_3299" x="56" y="330" width="309" height="60" filterUnits="userSpaceOnUse" color-interpolation-filters="sRGB">
<feFlood flood-opacity="0" result="BackgroundImageFix"/>
<feColorMatrix in="SourceAlpha" type="matrix" values="0 0 0 0 0 0 0 0 0 0 0 0 0 0 0 0 0 0 127 0" result="hardAlpha"/>
<feOffset dy="4"/>
<feGaussianBlur stdDeviation="2"/>
<feComposite in2="hardAlpha" operator="out"/>
<feColorMatrix type="matrix" values="0 0 0 0 0 0 0 0 0 0 0 0 0 0 0 0 0 0 0.2 0"/>
<feBlend mode="normal" in2="BackgroundImageFix" result="effect1_dropShadow_1875_3299"/>
<feBlend mode="normal" in="SourceGraphic" in2="effect1_dropShadow_1875_3299" result="shape"/>
</filter>
<filter id="filter2_d_1875_3299" x="56" y="416" width="309" height="60" filterUnits="userSpaceOnUse" color-interpolation-filters="sRGB">
<feFlood flood-opacity="0" result="BackgroundImageFix"/>
<feColorMatrix in="SourceAlpha" type="matrix" values="0 0 0 0 0 0 0 0 0 0 0 0 0 0 0 0 0 0 127 0" result="hardAlpha"/>
<feOffset dy="4"/>
<feGaussianBlur stdDeviation="2"/>
<feComposite in2="hardAlpha" operator="out"/>
<feColorMatrix type="matrix" values="0 0 0 0 0 0 0 0 0 0 0 0 0 0 0 0 0 0 0.2 0"/>
<feBlend mode="normal" in2="BackgroundImageFix" result="effect1_dropShadow_1875_3299"/>
<feBlend mode="normal" in="SourceGraphic" in2="effect1_dropShadow_1875_3299" result="shape"/>
</filter>
<filter id="filter3_d_1875_3299" x="56" y="502" width="309" height="60" filterUnits="userSpaceOnUse" color-interpolation-filters="sRGB">
<feFlood flood-opacity="0" result="BackgroundImageFix"/>
<feColorMatrix in="SourceAlpha" type="matrix" values="0 0 0 0 0 0 0 0 0 0 0 0 0 0 0 0 0 0 127 0" result="hardAlpha"/>
<feOffset dy="4"/>
<feGaussianBlur stdDeviation="2"/>
<feComposite in2="hardAlpha" operator="out"/>
<feColorMatrix type="matrix" values="0 0 0 0 0 0 0 0 0 0 0 0 0 0 0 0 0 0 0.2 0"/>
<feBlend mode="normal" in2="BackgroundImageFix" result="effect1_dropShadow_1875_3299"/>
<feBlend mode="normal" in="SourceGraphic" in2="effect1_dropShadow_1875_3299" result="shape"/>
</filter>
<linearGradient id="paint0_linear_1875_3299" x1="210.5" y1="0" x2="210.5" y2="852" gradientUnits="userSpaceOnUse">
<stop stop-color="#343D47"/>
<stop offset="1" stop-color="#4E6277"/>
</linearGradient>
<clipPath id="clip0_1875_3299">
<rect x="23" y="20" width="375" height="812" rx="50" fill="white"/>
</clipPath>
</defs>
</svg>
